<?xml version="1.0" encoding="utf-8"?>
<!-- Generator: Adobe Illustrator 27.8.0, SVG Export Plug-In . SVG Version: 6.00 Build 0)  -->
<svg version="1.1" id="Layer_1" xmlns="http://www.w3.org/2000/svg" xmlns:xlink="http://www.w3.org/1999/xlink" x="0px" y="0px"
	 viewBox="0 0 288 360" style="enable-background:new 0 0 288 360;" xml:space="preserve">
<style type="text/css">
	.st0{fill:#ED1C24;}
	.st1{font-family:'SuisseIntlCond-Bold';}
	.st2{font-size:24.4254px;}
</style>
<path class="st0" d="M77,49.3c-0.7,0-1.1,0-1.6,0c0.1-1.1,0.1-2,0.2-3c0-0.2,0.4-0.4,0.5-0.6c0.2,0.2,0.5,0.4,0.5,0.7
	C76.9,47.3,76.9,48.2,77,49.3z"/>
<text transform="matrix(1 0 0 1 28.1044 157.6124)" class="st1 st2">KEEP DRY</text>
<path class="st0" d="M7,5.8c91.1,0,182.1,0,273.2,0c0,116.2,0,232.3,0,348.6c-91,0-182.1,0-273.2,0C7,238.2,7,122.1,7,5.8z
	 M279.3,353.6c0-115.7,0-231.3,0-346.9c-90.5,0-181,0-271.4,0c0,115.7,0,231.2,0,346.9C98.5,353.6,188.8,353.6,279.3,353.6z"/>
<path class="st0" d="M216.2,17.7c12.3,28.5,24.3,56.6,36.5,84.9c-5.2,0-10.2,0-15.5,0c0,1.1,0,2.1,0,3.2c0,67,0,134.1,0,201.1
	c0,0.5,0,1,0,1.5c0.1,1.1-0.3,1.5-1.4,1.3c-0.5-0.1-1,0-1.5,0c-13.1,0-26.2,0-39.3,0c-0.6,0-1.2,0-2,0c0-0.7,0-1.2,0-1.7
	c0-67.8,0-135.7,0-203.5c0-1.8,0-1.8-1.8-1.8c-4.8,0-9.7,0-14.9,0C189.6,74.3,202.8,46.2,216.2,17.7z"/>
<path class="st0" d="M55.3,85.9c-0.7-1-1.5-2.3-2.5-3.5c-2.8-3.3-6.2-4.3-9.6-2.7c-1.6,0.8-3.1,2-4.5,3c-1.1,0.8-2,1.7-2.9,2.4
	c0,0.1-0.1-0.3-0.1-0.6c0.8-9.7,4-18.3,11-25.2c4.2-4.2,9.5-6.5,15.1-7.7c10.7-2.3,21.4-2.3,32,0.7c5.4,1.5,10.3,4,14.5,7.8
	c4.9,4.4,7.2,10.2,8.9,16.3c0.8,3,1.3,6.1,1.9,9.2c-0.1,0-0.3,0.1-0.4,0.1c-0.2-0.4-0.4-0.7-0.6-1.1c-3.7-7.4-12.8-8.1-17.5-1.3
	c-0.4,0.6-0.8,1.2-1.3,1.8c-0.9,1.1-1.3,1-2.3,0c-1.7-1.7-3.3-3.5-5.1-5c-3.4-2.6-6.9-2.3-10,0.7c-0.9,0.9-1.7,2-2.5,3
	c-0.7,0.8-1.2,1.7-1.9,2.8c0.8,0.1,1.5,0.1,2.2,0.1c0,0.4,0.1,0.9,0.1,1.3c0.1,10.4,0.2,20.8,0.2,31.3c0,1.8-0.2,3.6-0.6,5.3
	c-0.7,3-2.8,4.9-5.6,5.5c-2.7,0.6-5.4,0.1-7.3-2.2c-1.3-1.5-1.7-3.3-1.7-5.3c0-0.3,0.4-0.7,0.7-0.7c1.2-0.1,2.4,0,3.7,0
	c0.1,0.6,0.1,1,0.2,1.4c0.3,1.8,1,2.5,2.6,2.5c1.4,0,2.8-1.1,3-2.5c0.3-2.1,0.5-4.2,0.5-6.3c0-9.3-0.1-18.7-0.2-28
	c0-0.6,0-1.2,0-1.9c0.6-0.1,1-0.3,1.6-0.4c-0.1-0.3-0.2-0.6-0.3-0.8c-1.6-2.5-3.7-4.6-6.2-6.2c-2.8-1.8-5.7-1.7-8.3,0.3
	C59.6,82,57.5,84,55.3,85.9z"/>
<path class="st0" d="M72.2,209.6c1.8-2.2,3.4-4.3,5.2-6.4c0.3-0.3,1-0.4,1.5-0.4c4.6,0,9.1,0,13.7,0c1.3,0,1.7,0.3,1.7,1.7
	c-0.1,6.3,0,12.6,0,18.9c0,5.7,0.1,11.4,0.1,17.2c0,4.5-0.7,8.8-2.7,12.8c-3.1,6.3-7.9,10.4-15.2,10.7c-7.6,0.3-13.1-3.4-16.7-9.9
	c-3.1-5.5-3.6-11.5-3-17.6c0-0.5,0.3-1,0.6-1.4c1.1-1.4,2.1-2.9,3.3-4.2c1.7-2,3.1-4.2,3.7-6.9c0.1-0.4,0.8-0.9,1.2-1
	c1.2-0.2,2.5-0.2,3.8-0.4c0.4-0.1,1.1-0.6,1.1-0.9c-0.3-2.9,1.5-4.8,3-6.9c1.5-2.1,1.5-2.1-0.2-4C73,210.4,72.7,210.1,72.2,209.6z"
	/>
<path class="st0" d="M52.7,203.1c6.4-0.9,12.5-1.8,18.9-2.7c-1.6,3-3,5.8-4.6,8.8c1.7,0.2,3.1,0.4,4.6,0.6c0.1,0.1,0.2,0.2,0.3,0.3
	c-1.2,1.1-2.3,2.2-3.5,3.2c-1.1,0.9-1.7,2.1-1.5,3.4c0.5,3.2-0.8,5-3.8,5.8c-1.3,0.3-1.9,1.1-1.7,2.4c0.2,2.1-0.7,3.8-2.2,5.2
	c-0.9,1-1.7,2.1-2.9,3.4C55.1,223.2,53.9,213.2,52.7,203.1z"/>
<path class="st0" d="M72.6,265c2.2,0,4.3,0,6.5,0c-1.9,12.6-1.8,25.1,0,37.7c-2.3,0-4.5,0-6.8,0C74.4,290.2,74,277.7,72.6,265z"/>
<path class="st0" d="M75.3,310.1c-4.4,0-8.8,0-13.2,0c-1,0-2.1-0.2-3-0.5c-1-0.3-1-1-0.1-1.6c0.6-0.4,1.3-0.6,1.9-0.8
	c3.6-1,7.1-2.2,10.7-2.7c3-0.4,6.1-0.2,9.1,0.2c2.8,0.4,5.4,1.5,8.1,2.3c0.4,0.1,0.8,0.1,1.1,0.4c0.8,0.5,2.2,1.3,2.1,1.7
	c-0.2,1.3-1.6,1.2-2.7,1.2C84.6,310.1,80,310.1,75.3,310.1C75.3,310.1,75.3,310.1,75.3,310.1z"/>
<path class="st0" d="M93.1,32.7c0.1,0.7,0.2,1.3,0.2,2c0.2,2.3,0.3,4.7,0.5,7c0.2,1.9-1,4-2.7,4.6c-1.5,0.6-3.3-0.1-4.2-1.6
	c-1-1.6-0.7-3.5,0.7-5.1c1.3-1.5,2.4-3.2,3.5-4.8c0.5-0.7,1-1.4,1.6-2.2C92.8,32.6,92.9,32.6,93.1,32.7z"/>
<path class="st0" d="M68.1,31.8c0.1,0.6,0.1,1.2,0.2,1.7c0.2,2.4,0.3,4.7,0.5,7.1c0.1,1.8-0.5,3.3-2,4.4c-1.2,0.8-2.5,0.8-3.7,0
	c-1.4-0.9-2.1-2.2-1.8-3.8c0.1-0.8,0.6-1.6,1-2.2c1.2-1.8,2.5-3.5,3.8-5.2c0.5-0.7,1.1-1.4,1.6-2.2C67.8,31.7,67.9,31.7,68.1,31.8z"
	/>
<path class="st0" d="M81.2,17.8c0.1,0.6,0.2,1.2,0.2,1.9c0.2,2.4,0.3,4.8,0.5,7.1c0.2,1.8-1,3.9-2.7,4.5c-1.6,0.6-3.4-0.1-4.3-1.7
	c-1-1.6-0.6-3.4,0.7-4.9c1.3-1.5,2.4-3.2,3.6-4.8c0.5-0.7,1-1.5,1.5-2.2C80.9,17.7,81.1,17.7,81.2,17.8z"/>
<path class="st0" d="M116.7,42.9c0.1,0.5,0.2,1.1,0.2,1.6c0.2,2.4,0.4,4.9,0.4,7.3c0,1.1-0.3,2.3-0.8,3.2c-1.1,1.8-3.3,2.1-4.9,1
	c-1.7-1.2-2.3-3.7-1.2-5.3c1.6-2.4,3.4-4.7,5.1-7c0.2-0.3,0.4-0.7,0.6-1.1C116.3,42.7,116.5,42.8,116.7,42.9z"/>
<path class="st0" d="M110.1,23.8c0.1,3.6,0.4,7.2,0.3,10.8c0,1.6-1.8,2.8-3.3,2.9c-1.5,0.1-3-0.8-3.7-2.3c-0.7-1.4-0.3-3,0.8-4.3
	c1.3-1.7,2.5-3.4,3.8-5.2c0.5-0.7,1-1.4,1.5-2.1C109.7,23.7,109.9,23.7,110.1,23.8z"/>
<path class="st0" d="M43.3,44c0.2,3.5,0.6,7,0.5,10.6c0,1.8-1.9,3.1-3.5,3.2c-1.4,0.1-2.9-0.9-3.6-2.3c-0.7-1.6-0.3-3.1,0.9-4.5
	c1.3-1.6,2.4-3.3,3.6-5c0.5-0.7,1.1-1.4,1.6-2.1C43,43.9,43.2,44,43.3,44z"/>
<path class="st0" d="M53.1,22.7c0.1,0.5,0.2,1.1,0.2,1.6c0.2,2.5,0.3,4.9,0.5,7.4c0.2,2-1,3.9-2.8,4.6c-1.5,0.5-3.3-0.1-4.2-1.6
	c-1-1.6-0.6-3.5,0.8-5.1c1.3-1.5,2.4-3.2,3.5-4.8c0.5-0.7,1.1-1.4,1.6-2.1C52.8,22.6,53,22.6,53.1,22.7z"/>
<path class="st0" d="M148.6,7.4c0,2.4,0,4.7,0,7.1c0,0.2-0.4,0.5-0.6,0.7c-0.2-0.3-0.7-0.5-0.7-0.8c-0.1-2.1-0.1-4.2,0-6.3
	c0-0.3,0.5-0.7,0.8-1C148.3,7.2,148.5,7.3,148.6,7.4z"/>
<path class="st0" d="M148.1,175.8c-0.3-0.4-0.7-0.7-0.7-1.1c-0.1-2.1-0.1-4.1,0-6.2c0-0.3,0.4-0.6,0.6-0.9c0.2,0.3,0.6,0.5,0.6,0.8
	c0.1,2.3,0,4.7,0,7C148.5,175.5,148.3,175.6,148.1,175.8z"/>
<path class="st0" d="M148.6,159.4c-1,0.4-1.3,0.1-1.3-0.8c0-2,0-4,0-6c0-0.3,0.4-0.6,0.7-0.9c0.2,0.3,0.6,0.6,0.6,0.9
	C148.7,154.7,148.6,157,148.6,159.4z"/>
<path class="st0" d="M148.6,183.7c0,2.4,0,4.7,0,7.1c0,0.2-0.4,0.5-0.6,0.7c-0.2-0.3-0.7-0.5-0.7-0.8c-0.1-2.1-0.1-4.2,0-6.3
	c0-0.4,0.5-0.7,0.8-1C148.3,183.6,148.5,183.7,148.6,183.7z"/>
<path class="st0" d="M148.6,23.4c0,2.4,0,4.8,0,7.1c0,0.2-0.4,0.5-0.6,0.7c-0.2-0.2-0.6-0.4-0.6-0.7c0-2.2-0.1-4.4,0-6.6
	c0-0.3,0.6-0.6,0.9-0.8C148.4,23.2,148.5,23.3,148.6,23.4z"/>
<path class="st0" d="M148.6,103.7c0,2.5,0,5,0,7.5c-0.9,0.3-1.3,0.1-1.3-0.8c0-2,0-4,0-6c0-0.4,0.5-0.7,0.8-1
	C148.3,103.5,148.4,103.6,148.6,103.7z"/>
<path class="st0" d="M148.6,135.7c0,2.5,0,5.1,0,7.6c-0.9,0.3-1.3,0.1-1.3-0.8c0-2,0-4,0-6c0-0.4,0.5-0.7,0.7-1.1
	C148.3,135.5,148.4,135.6,148.6,135.7z"/>
<path class="st0" d="M148.6,199.8c0,2.5,0,5.1,0,7.6c-0.8,0.3-1.3,0.2-1.3-0.8c0-2,0-4,0-6C147.3,199.7,147.7,199.4,148.6,199.8z"/>
<path class="st0" d="M148.2,239.8c-0.3-0.3-0.8-0.6-0.8-0.9c-0.1-2.3,0-4.7,0-7c0.2-0.1,0.3-0.2,0.5-0.3c0.3,0.3,0.8,0.7,0.8,1
	c0.1,2.3,0,4.6,0,6.9C148.5,239.6,148.3,239.7,148.2,239.8z"/>
<path class="st0" d="M148.1,255.8c-0.3-0.4-0.7-0.7-0.7-1.1c-0.1-2.2,0-4.5,0.3-7.1c0.3,0.3,0.9,0.5,1,0.8c0.1,2.3,0,4.7,0,7
	C148.5,255.6,148.3,255.7,148.1,255.8z"/>
<path class="st0" d="M148.6,263.9c0,2.6,0,5.1,0,7.7c-0.7,0.2-1.3,0.3-1.3-0.8c0-2,0-4,0-6C147.3,263.8,147.7,263.7,148.6,263.9z"/>
<path class="st0" d="M148.6,287.6c-0.8,0.3-1.3,0.1-1.2-0.8c0-2,0-3.9,0-5.9c0-0.9,0.3-1.2,1.2-0.9
	C148.6,282.5,148.6,285.1,148.6,287.6z"/>
<path class="st0" d="M148.6,296.1c0,2.5,0,5,0,7.6c-0.4,0-0.8,0-1.2,0c0-2.4,0-4.8,0-7.1c0-0.3,0.6-0.6,0.9-0.9
	C148.3,295.9,148.5,296,148.6,296.1z"/>
<path class="st0" d="M148.6,55.6c0,2.5,0,5,0,7.5c-0.9,0.3-1.3,0.1-1.3-0.8c0-2,0-4,0-6c0-0.4,0.5-0.7,0.8-1.1
	C148.3,55.3,148.4,55.5,148.6,55.6z"/>
<path class="st0" d="M148.6,79.2c-0.8,0.3-1.3,0.1-1.2-0.8c0-2,0-4,0.1-6c0-0.4,0.5-0.7,0.8-1.1c0.1,0.1,0.3,0.2,0.4,0.3
	C148.6,74.1,148.6,76.6,148.6,79.2z"/>
<path class="st0" d="M148.6,95.3c-0.9,0.3-1.3,0-1.2-0.9c0-2,0-3.9,0-5.9c0-0.9,0.3-1.2,1.2-0.9C148.6,90.1,148.6,92.6,148.6,95.3z"
	/>
<path class="st0" d="M148.6,119.7c0,2.6,0,5.1,0,7.6c-0.9,0.3-1.3,0.1-1.3-0.8c0-2,0-3.9,0-5.9C147.3,119.7,147.6,119.4,148.6,119.7
	z"/>
<path class="st0" d="M148.1,336c-0.3-0.4-0.7-0.7-0.7-1.1c-0.1-2-0.1-4,0-6c0-0.3,0.5-0.6,0.7-0.9c0.2,0.3,0.5,0.6,0.6,0.9
	c0,2.3,0,4.6,0,6.9C148.5,335.8,148.3,335.9,148.1,336z"/>
<path class="st0" d="M148.1,47.4c-0.3-0.4-0.8-0.7-0.8-1.1c-0.1-2,0-4,0-6c0-0.9,0.4-1.1,1.3-0.8c0,2.5,0,5.1,0,7.6
	C148.4,47.2,148.3,47.3,148.1,47.4z"/>
<path class="st0" d="M148.6,215.9c0,2.3,0,4.7,0,7c0,0.3-0.4,0.5-0.6,0.7c-0.2-0.3-0.7-0.5-0.7-0.8c-0.1-2.1-0.1-4.2,0-6.3
	c0-0.3,0.5-0.6,0.8-1C148.3,215.6,148.5,215.8,148.6,215.9z"/>
<path class="st0" d="M148.1,320c-0.3-0.4-0.7-0.7-0.7-1.1c-0.1-2-0.1-4,0-6c0-0.3,0.4-0.6,0.7-0.9c0.2,0.3,0.6,0.6,0.6,0.9
	c0,2.3,0,4.6,0,6.9C148.5,319.8,148.3,319.9,148.1,320z"/>
<path class="st0" d="M148.1,352.3c-0.3-0.4-0.7-0.7-0.7-1.1c-0.1-2-0.1-4,0-6c0-0.3,0.5-0.6,0.7-0.9c0.2,0.3,0.5,0.6,0.6,0.9
	c0,2.3,0,4.6,0,6.9C148.5,352.1,148.3,352.2,148.1,352.3z"/>
<path class="st0" d="M148.1,336.2c-0.3-0.4-0.7-0.7-0.7-1.1c-0.1-2-0.1-4,0-6c0-0.3,0.4-0.6,0.7-0.9c0.2,0.3,0.6,0.6,0.6,0.9
	c0,2.3,0,4.6,0,6.9C148.5,336,148.3,336.1,148.1,336.2z"/>
<path class="st0" d="M30.5,180.6c1,0,2.1,0,3.1,0c0.3,0,0.6,0.4,0.9,0.5c-0.3,0.2-0.6,0.6-1,0.6c-2.1,0.1-4.1,0.1-6.2,0
	c-0.3,0-0.6-0.4-0.8-0.6c0.3-0.2,0.6-0.5,0.9-0.6C28.4,180.5,29.4,180.6,30.5,180.6z"/>
<path class="st0" d="M50.3,181.8c-2.3,0-4.6,0-6.9,0c-0.3,0-0.6-0.4-0.9-0.6c0.3-0.2,0.6-0.6,0.8-0.6c2.1-0.1,4.2-0.1,6.3,0
	c0.3,0,0.6,0.5,0.9,0.8C50.6,181.5,50.5,181.7,50.3,181.8z"/>
<path class="st0" d="M14.3,180.6c1,0,2.1,0,3.1,0c0.3,0,0.6,0.4,0.9,0.5c-0.3,0.2-0.6,0.6-1,0.6c-2.1,0.1-4.1,0.1-6.2,0
	c-0.3,0-0.6-0.4-0.8-0.6c0.3-0.2,0.6-0.5,0.9-0.6C12.3,180.5,13.3,180.6,14.3,180.6z"/>
<path class="st0" d="M34.2,181.8c-2.3,0-4.6,0-6.9,0c-0.3,0-0.6-0.4-0.9-0.6c0.3-0.2,0.6-0.6,0.8-0.6c2.1-0.1,4.2-0.1,6.3,0
	c0.3,0,0.6,0.5,0.9,0.8C34.4,181.5,34.3,181.7,34.2,181.8z"/>
<path class="st0" d="M58.8,181.7c-0.2-0.8-0.1-1.2,0.8-1.2c2.1,0,4.1,0,6.2,0c0.9,0,1.1,0.3,0.8,1.2
	C63.9,181.7,61.4,181.7,58.8,181.7z"/>
<path class="st0" d="M130.7,181.7c-2.5,0-5,0-7.6,0c-0.3-0.8-0.2-1.2,0.7-1.2c2.1,0,4.1,0,6.2,0c0.3,0,0.7,0.5,1,0.7
	C130.9,181.5,130.8,181.6,130.7,181.7z"/>
<path class="st0" d="M114.7,181.7c-2.5,0-5,0-7.6,0c-0.3-0.7-0.2-1.2,0.7-1.2c2.1,0,4.1,0,6.2,0c0.4,0,0.7,0.4,1,0.7
	C114.9,181.4,114.8,181.6,114.7,181.7z"/>
<path class="st0" d="M90.7,181.4c0.3-0.3,0.6-0.8,0.9-0.8c2.1-0.1,4.2-0.1,6.3,0c0.3,0,0.5,0.4,0.8,0.6c-0.3,0.2-0.5,0.5-0.8,0.5
	c-2.3,0-4.7,0-7,0C90.9,181.7,90.8,181.5,90.7,181.4z"/>
<path class="st0" d="M78.9,180.6c1,0,2.1,0,3.1,0c0.2,0,0.5,0.4,0.7,0.6c-0.2,0.2-0.5,0.6-0.7,0.6c-2.1,0-4.3,0-6.4,0
	c-0.3,0-0.5-0.3-0.8-0.5c0.3-0.2,0.5-0.6,0.8-0.6C76.7,180.5,77.8,180.6,78.9,180.6C78.9,180.6,78.9,180.6,78.9,180.6z"/>
<path class="st0" d="M138.9,181.3c0.3-0.2,0.7-0.7,1-0.7c1.2-0.1,2.3-0.1,3.5,0c0.3,0,0.5,0.4,0.8,0.6c-0.3,0.2-0.5,0.5-0.8,0.5
	c-1.4,0.1-2.8,0-4.2,0C139.1,181.6,139,181.5,138.9,181.3z"/>
<text transform="matrix(1 0 0 1 31.5736 340.1754)" class="st1 st2">FRAGILE</text>
<text transform="matrix(1 0 0 1 202.8693 340.1754)" class="st1 st2">UP</text>
</svg>
