<?xml version="1.0" encoding="utf-8"?>
<!-- Generator: Adobe Illustrator 27.8.0, SVG Export Plug-In . SVG Version: 6.00 Build 0)  -->
<svg version="1.1" id="Layer_1" xmlns="http://www.w3.org/2000/svg" xmlns:xlink="http://www.w3.org/1999/xlink" x="0px" y="0px"
	 viewBox="0 0 636.4 634.4" style="enable-background:new 0 0 636.4 634.4;" xml:space="preserve">
<style type="text/css">
	.st0{fill:#AE52E4;}
</style>
<path class="st0" d="M636.4,634.4H0V0h636.4V634.4z M320.7,5.7v310.2h309.7V5.7H320.7z M630.5,628.5v-306H320.7v306H630.5z
	 M314.2,315.9V5.8H5.9v310.1L314.2,315.9L314.2,315.9z M6,322.3v306.2h308.1V322.3L6,322.3L6,322.3z"/>
<path class="st0" d="M470,172c-5.6-1.4-10.8-2.5-15.9-4.2c-13.2-4.3-22-13.1-24.9-26.8c-2.8-13.3-4.9-26.8-6.9-40.3
	c-0.2-1.5,1.2-4.1,2.6-4.9c6.1-3.4,12.4-6.4,18.8-9.2c1.4-0.6,3.4-0.1,4.9,0.3c1.4,0.4,2.8,1.2,3.9,2.2c8,7.1,16,7.3,24.3,0.6
	c4.7-3.8,9.5-4.1,14.3-0.1c7.4,6.3,14.6,5.8,22.2-0.1c1.9-1.5,4.3-4.6,7.3-1.7c3.6,3.5,10.1,4.5,8.7,12.2
	c-2.3,12.4-3.1,25.1-5.5,37.4c-3.5,18.2-14.6,29.4-33.2,32.7c-1,0.2-1.9,0.5-3.1,0.8v103.9c9.9,0.9,19.6,1.4,29.3,2.6
	c6.9,0.9,13.8,2.3,20.5,4.3c2.8,0.8,4.9,3.9,7.3,5.9c-2.3,2.1-4.3,5.3-7,6.1c-7.8,2.2-15.8,4-23.9,4.8c-28.6,2.9-57.1,3-85.5-2.4
	c-3.4-0.6-6.9-1.5-10-3.1c-2.1-1.1-4.9-3.4-4.9-5.3c0-1.8,2.7-4.6,4.8-5.3c5.1-1.9,10.5-3.5,15.9-4.2c11.9-1.6,23.8-2.5,36.2-3.8
	V172L470,172z"/>
<path class="st0" d="M530.7,84.3c-10.4-6.3-17.1-0.4-23.9,4.2c-3.8,2.6-7.1,3.7-11.1,0.5c-8.7-7.2-17.5-7-26.2,0.2
	c-3.3,2.7-6.6,2.7-9.8,0c-10.2-8.4-20.3-8.3-30.5,0.2c-1.9,1.6-4.7,2.1-8,3.5c-0.6-10.5-1.2-20.1-1.7-29.6c-0.4-7.4-1.2-14.9-1-22.3
	c0-2,2.5-5,4.4-5.7c5.5-2.1,11.4-3.9,17.2-4.7c25.3-3.6,50.7-3.8,75.9,1.2c2.3,0.5,4.5,1.1,6.7,1.9c7.9,2.6,8.3,3.7,8.1,11.8
	C530.4,58,530.7,70.6,530.7,84.3L530.7,84.3z M420.7,39.3c0.1,0.7,0.2,1.4,0.3,2.2c2.6,0.8,5.1,2.2,7.7,2.2
	c30.2,0.4,60.4,0.6,90.6,0.6c3.1,0,6.2-1.5,10.1-2.5c-3.6-5.1-8.3-6-12.7-7c-17.6-4.1-35.6-4.7-53.5-3.6
	c-10.4,0.6-20.8,2.1-31.1,3.7C428.2,35.6,424.5,37.8,420.7,39.3L420.7,39.3z"/>
<path class="st0" d="M498.3,407h-9.8v-6.6h17.9v22.9c-3.5,0.7-6.8,1.5-6.4-4.9c-7,6.6-14.3,8.3-22.1,4.7c-3.3-1.5-6.5-4.2-8.6-7.1
	c-5.6-8-5.1-21.2,0.4-29.3c6.6-9.6,23.5-11.7,31.8-3.5c2.4,2.4,3.8,5.8,6.1,9.5c-5.7,0.5-9.4,1.2-12.6-3.5c-3.8-5.6-13-4.3-17.2,1.5
	c-3.7,5.1-4,15.6-0.6,21c2.5,4,7.8,6.4,12.6,5.3C494.5,415.9,497.4,412.9,498.3,407L498.3,407z"/>
<path class="st0" d="M390.1,423.4h-8.9v-43.6c8.8,0,17.6-0.4,26.3,0.1c4.8,0.3,8,3.8,9.3,8.5c1.5,5.3,0,9.1-5.3,14.2
	c8,5,2.3,14,6.6,21.1c-2.5,0-4.4-0.2-6.2,0c-3.5,0.4-4.9-1.2-4.7-4.6c0.6-14.6-2.3-13-15.1-12.9c-0.5,0-0.9,0.2-1.9,0.5L390.1,423.4
	L390.1,423.4z M390.1,398.8c4.7,0,8.8,0.2,12.9-0.1c3.5-0.3,5.3-2.6,5-6.2c-0.2-3.2-2-5.3-5.4-5.4c-4.1-0.2-8.2,0-12.5,0
	L390.1,398.8L390.1,398.8z"/>
<path class="st0" d="M476.9,497.6h-8.5c-0.1-1-0.3-1.8-0.3-2.6c0-13.6,0-27.2,0-40.8c8.1-2.1,9.3-1.6,13,4.9
	c4.4,7.6,8.8,15.3,13.2,22.9c0.1,0.3,0.5,0.4,1.5,1.2v-29.6h8.2v43.5c-7.6,1.9-8.4,1.5-12-4.7c-4.7-8.1-9.4-16.3-15.1-24.2
	L476.9,497.6L476.9,497.6z"/>
<path class="st0" d="M358.4,497.4v-43.3c8.3,0,16.6,0,24.8,0c0.9,0,1.9,0.5,2.8,1c7,3.3,11,12.6,9.7,22.9
	c-1.5,11.6-6.1,18.3-14.8,19.3C373.6,498,366.1,497.4,358.4,497.4L358.4,497.4z M367.2,490.1c6.4-0.5,13.1,2.2,16.8-4.6
	c3.6-6.6,3.9-14,0.1-20.6s-10.6-3.3-16.5-4c-0.1,1.3-0.3,2.1-0.3,2.9C367.2,472.4,367.2,480.9,367.2,490.1L367.2,490.1z"/>
<path class="st0" d="M554.1,473.1c-0.2,19.6-12.3,29.2-28.1,24.9c-1.6-0.4-3.2-1.1-4.6-1.9c-9.7-5.5-13.3-22.2-7.3-33.5
	c5.2-9.7,18.8-13.4,29.2-7.8C551.8,459.2,554,467,554.1,473.1L554.1,473.1z M520.5,474.8c0.3,2.7,0.3,4.8,0.8,6.7
	c1.5,6.1,5.8,9.6,11.6,9.6c5.6,0,10.1-3.3,11.1-9.4c0.7-4.6,0.5-9.6-0.6-14.1c-1.2-4.9-5.3-7.5-10.5-7.5c-5.2,0-8.9,2.5-10.8,7.3
	C521.1,469.9,520.9,472.8,520.5,474.8L520.5,474.8z"/>
<path class="st0" d="M401,475.7c-0.1-14.5,8-23.5,21.3-23.6c13-0.1,21.3,8.8,21.5,23c0.2,14.4-8,23.6-21.1,23.8
	C409.3,499,401.1,490.3,401,475.7L401,475.7z M409.8,475c0.5,2.8,0.7,5.3,1.4,7.7c1.6,5.4,5.8,8.4,11,8.4c5.5,0,10.1-2.9,11.1-8.7
	c0.8-4.9,0.6-10.2-0.5-15.1c-1.1-5-5.5-7.3-10.6-7.3c-5,0-8.6,2.5-10.4,7.1C410.8,469.7,410.4,472.5,409.8,475L409.8,475z"/>
<path class="st0" d="M546.7,544.2c3.4-3.6,7.2-6.9,10.1-10.8c4.2-5.8,9.6-6.9,16.5-5.4c-5.9,5.7-11.6,11.2-17.4,16.8
	c6.9,9.4,12.9,17.7,19,26.1c-7.8,2.5-10.8,1.5-15.1-4.7c-3.1-4.5-6.3-8.9-9.6-13.5c-8,4.8-2.8,12.8-5.2,18.9h-8.2V528h8.7v15.7
	C545.9,543.9,546.3,544,546.7,544.2L546.7,544.2z"/>
<path class="st0" d="M603.4,387.2h-23.1v9.2h21.2v7.8h-21.1v11.6h24v7.5h-32.9v-43.8h32L603.4,387.2L603.4,387.2z"/>
<path class="st0" d="M372.5,558.4c4.4-0.2,8-1.4,10.3,3.7c1.9,4.2,12.5,4.4,15.8,0.9c2.6-2.7,1.7-6.3-2.4-7.8s-8.4-2.2-12.5-3.3
	c-7.9-2.2-10.9-5.8-10.6-12.8c0.3-6.7,4.5-11.5,12-12.3c4.5-0.5,9.3-0.1,13.6,1.2c5.4,1.6,8.1,5.9,8.4,12.1c-3.9,0.2-7.5,2.3-10-3.1
	c-1.8-4-10.7-4.3-13.9-1.3c-2.7,2.6-1.8,6.5,2.1,7.8c4.4,1.4,9,2.2,13.5,3.5c7.3,2.1,10.1,5.5,10,11.8c-0.1,6.5-3.6,11.8-10.3,12.8
	c-5.7,0.9-11.9,0.6-17.5-0.7C375.4,569.7,372.8,564.8,372.5,558.4L372.5,558.4z"/>
<path class="st0" d="M487.2,571.8c-2.5,0-4.2-0.2-6,0c-3,0.3-4.8-0.7-5.2-3.8c-0.5-4.6-3.1-6.2-7.5-5.4c-1.1,0.2-2.4,0.2-3.5,0
	c-5.1-0.8-8.2,0.5-9.6,6.2c-1.3,5.7-6.4,1.7-10.5,3.3c2.4-6.9,4.5-12.9,6.7-19c2.7-7.7,5.3-15.4,8.4-22.9c0.6-1.4,3.1-2.8,4.7-2.8
	c2.5,0,6.6,0.6,7.2,2C477.3,543.3,482.1,557.3,487.2,571.8L487.2,571.8z M471.6,554.8c-1.7-5.5-3.3-10.6-4.9-15.6
	c-0.4,0-0.8,0-1.2,0c-1.6,5.1-3.2,10.2-5,15.7L471.6,554.8L471.6,554.8z"/>
<path class="st0" d="M464.2,423c-8.9,1.6-8.8,1.5-11.8-5.4c-0.6-1.4-2.6-2.6-4.2-3c-1.9-0.5-4,0.1-6-0.2c-5.1-0.7-8.2,0.7-9.5,6.4
	c-1.3,5.6-6.3,1.8-10.6,3.2c1.9-5.4,3.5-9.9,5.1-14.3c3.2-9.1,6.4-18.2,9.8-27.2c0.5-1.3,2.3-3,3.5-3c2.9,0,7.8,0.1,8.4,1.6
	C454.4,394.8,459.2,408.9,464.2,423L464.2,423z M437.5,406.7h11.3c-1.8-5.6-3.4-10.8-5-16c-0.3,0-0.7,0-1,0
	C441.1,395.8,439.5,400.9,437.5,406.7L437.5,406.7z"/>
<path class="st0" d="M528,541.7c-4.4,0-8.2,1.2-11-4.1c-2.9-5.4-11.9-4.5-15.8,0.9c-4,5.5-4,16.8,0,22.3c4,5.5,13.1,6,16.1,0.1
	c2.8-5.4,6.5-4.1,10.7-3.9c-1,8.4-6.5,14.1-14.6,15.6c-9,1.6-17.6-1.9-21.3-9.4c-4.5-9-4.5-18.3,0.1-27.3
	c3.9-7.6,12.6-11.1,21.8-9.3C522.1,528.3,527.1,533.5,528,541.7L528,541.7z"/>
<path class="st0" d="M343.4,379.5h30.7v7.5h-21.6v9.9h18.9v8h-19.2v18.5h-8.8V379.5L343.4,379.5z"/>
<path class="st0" d="M591,461.1h-12.9v36.4H569v-36.4h-13.6v-7.4H591V461.1L591,461.1z"/>
<path class="st0" d="M412.6,527.8H448v7.2h-12.8v36.5h-8.9v-36.1h-13.6L412.6,527.8L412.6,527.8z"/>
<path class="st0" d="M541.9,379.6v36h21.9v7.7h-30.7v-43.7H541.9z"/>
<path class="st0" d="M515.2,379.5h8.5v43.9h-8.5V379.5L515.2,379.5z"/>
<path class="st0" d="M241.7,237.2h-55.3c0-2.2,0-4.3,0-6.3c0-47.1-0.1-94.1,0.1-141.2c0-4.8-1.3-6.6-6.2-6.1
	c-3.7,0.4-7.5,0.1-12.6,0.1c16.1-20.2,31.4-39.3,47.1-59c14.9,19.4,29.5,38.4,44.9,58.5h-18L241.7,237.2L241.7,237.2z"/>
<path class="st0" d="M81.4,84.4H62.5C78.6,64.3,94,45,109.8,25.2c15,19.5,29.5,38.5,44.9,58.5c-5,0-8.8,0.2-12.5-0.1
	c-4.3-0.4-5.9,1.1-5.8,5.6c0.3,8.8,0.1,17.6,0.1,26.4c0,38.4,0,76.8,0,115.2c0,1.9,0,3.9,0,6.2H81.5C81.5,237,81.5,84.4,81.4,84.4z"
	/>
<path class="st0" d="M57,299.8V251h204.9v48.9H57z"/>
<path class="st0" d="M160.6,595.4c-68.8-2.1-121.8-58.9-119.6-126c2.3-70.2,59.5-122.2,129.7-119.1c67.1,2.9,119.4,60.9,116.3,129.1
	C284.1,545,226.2,598.1,160.6,595.4z M88.4,391.6C59,421.3,47.6,456,55.9,496.6c8.6,41.9,44,76.5,85.7,84.3
	c36,6.8,67.9-1.8,96.4-25.8c-9.8-10.6-18.9-20.6-28.2-30.8c-19.4,17.5-38.2,34.5-57.2,51.6c-15.5-8.8-31-17.7-46.7-26.5
	c-2.4-1.3-3.2-2.7-3.1-5.5c0.4-14.5,0.8-28.9,0.7-43.4c0-5.5,0.5-10,5.6-13c0.2-0.1,0.1-0.6,0.2-1.2c-4.8-1.2-4.7-5-4.5-9
	c0.4-12.1,0.9-24.3,0.6-36.4c-0.3-8.2,0.2-15.4,8.6-19.6c0.2-0.1,0.3-0.6,0.7-1.3C106.1,410.9,97.5,401.6,88.4,391.6L88.4,391.6z
	 M122.7,414.5c1.7-1.3,2.8-2.2,4-3.1c16.4-13.3,32.9-26.5,49.3-39.8c2.3-1.9,4-2,6.6-0.7c14,6.9,28.1,13.7,42.3,20.3
	c3.1,1.4,3.9,3.3,3.9,6.5c-0.2,11.8-0.5,23.6,0.1,35.4c0.4,8-0.5,14.8-7.9,19.2c-0.3,0.2-0.4,0.9-0.5,1.3c4.2,2.5,6.3,6.2,6.3,11.1
	c0,10.6-0.4,21.3,0.2,31.9c0.5,8.4-0.7,15.4-8.4,20c-0.3,0.2-0.4,0.8-0.8,1.6c9,9.9,18.1,19.7,27.1,29.6
	c36.9-36.7,43.9-106.2-1.3-152.3c-45.2-46.1-112.2-39.7-146.8-9.7C105.2,395.2,113.8,404.7,122.7,414.5L122.7,414.5z M224.3,394.6
	c-0.9-0.7-1.4-1.1-2-1.4c-13.3-6.4-26.6-12.9-40-19.1c-1.6-0.7-4.5,0-6,1.1c-10.1,7.8-20,16-30,24c-7.1,5.7-14.1,11.5-21.5,17.5
	c11.3,12.4,22.2,24.3,33.4,36.6C180.5,433.6,202.3,414.2,224.3,394.6L224.3,394.6z M225.8,397.2c-22.4,19.9-43.8,38.9-65.6,58.2
	c8.1,8.8,15.8,17.3,23.8,26c13.7-12.4,27.1-24.3,40.2-36.5c1.1-1,1.4-3.3,1.4-4.9c0.1-8.8,0.1-17.6,0.1-26.4
	C225.8,408.6,225.8,403.6,225.8,397.2L225.8,397.2z M151.8,572.1c0.6-16.2,1.1-31.4,1.4-46.7c0-1.5-1.6-3.5-3.1-4.4
	c-8.9-5.5-18-10.7-27-16c-5.2-3.1-10.5-6.1-15.8-9.1c-0.4,0.7-0.8,0.9-0.8,1.2c-0.3,15.5-0.7,30.9-0.8,46.3c0,1.3,1.2,3.1,2.4,3.8
	C122.5,555.5,136.8,563.6,151.8,572.1L151.8,572.1z M153.7,508.2c0.5-14.4,1.1-28.1,1.5-41.9c0-0.8-0.2-1.8-0.7-2.3
	c-4.2-4.4-8-9.5-12.9-13c-7.9-5.5-16.5-9.9-24.9-14.7c-2.5-1.5-5.1-2.8-9.1-5.1c0,17.1,0,32.8,0.1,48.6c0,1.1,0.8,2.6,1.8,3.2
	C124,491.4,138.6,499.6,153.7,508.2L153.7,508.2z M156.4,568.6c16.8-15.2,34-30.7,51.4-46.4c-8.1-8.9-15.8-17.3-23.6-25.8
	c-9.1,8.1-17.7,15.7-26.2,23.4c-0.8,0.7-1.5,1.9-1.5,2.9C156.4,537.9,156.4,553.2,156.4,568.6L156.4,568.6z M191.6,489.8
	c8.1,8.9,15.7,17.2,23.2,25.4c6.4-3.8,9.8-8.2,9.2-15.9c-0.8-10.8-0.2-21.6-0.2-32.4c0-1.5-0.2-3-0.4-5.3
	C212.4,471.3,202.2,480.3,191.6,489.8L191.6,489.8z M178.5,490.4c-8.3,7.5-16.1,14.5-24,21.6c-12.4-7-24.9-13.9-37.1-21.2
	c-4.1-2.4-6.5-1.7-9.2,2.2c14.6,8.5,29,17,43.5,25.3c0.9,0.5,2.9,0,3.8-0.7c8.6-7.5,17.1-15.2,25.6-22.9c0.2-0.2,0.1-0.6,0.3-1.2
	C180.7,492.7,179.8,491.8,178.5,490.4L178.5,490.4z M157.7,505.2c6.4-5.8,12.5-11.3,19-17.1c-6.1-6.6-11.8-12.9-17.6-19.1
	c-0.5,0.2-0.9,0.3-1.4,0.5V505.2z M221.8,459c0.1-0.7,0.1-1.3,0.2-2c-2.1,0-5.1-0.9-6.3,0.1c-9.9,8.5-19.6,17.4-30,26.8
	c1.4,1.5,2.5,2.6,3.7,3.8C200.6,477.8,211.2,468.4,221.8,459L221.8,459z M109.8,428.9c8.5,5,16.3,9.6,24.2,14.2
	c0.2-0.3,0.4-0.6,0.7-0.9c-5.8-6.3-11.6-12.6-17.6-19.2C114.6,424.9,112.4,426.7,109.8,428.9L109.8,428.9z"/>
</svg>
