<?xml version="1.0" encoding="utf-8"?>
<!-- Generator: Adobe Illustrator 27.8.0, SVG Export Plug-In . SVG Version: 6.00 Build 0)  -->
<svg version="1.1" id="Layer_1" xmlns="http://www.w3.org/2000/svg" xmlns:xlink="http://www.w3.org/1999/xlink" x="0px" y="0px"
	 viewBox="0 0 151.5 91.7" style="enable-background:new 0 0 151.5 91.7;" xml:space="preserve">
<style type="text/css">
	.st0{fill:#EC008C;}
</style>
<path class="st0" d="M139.4,91.7H12.1C5.4,91.7,0,86.3,0,79.6V12.1C0,5.4,5.4,0,12.1,0h127.3c6.7,0,12.1,5.4,12.1,12.1v67.5
	C151.5,86.3,146.1,91.7,139.4,91.7L139.4,91.7z M12.1,2C6.5,2,2,6.5,2,12.1v67.5c0,5.6,4.5,10.1,10.1,10.1h127.3
	c5.6,0,10.1-4.5,10.1-10.1V12.1c0-5.6-4.5-10.1-10.1-10.1H12.1z"/>
<path class="st0" d="M57.5,20.2c0,3.3-2.2,4.4-5.1,4.4h-2.9v-8.7h2.9C55.2,15.9,57.5,16.9,57.5,20.2L57.5,20.2z M51.5,17.6v5.2h0.8
	c1.5,0,2.9-0.3,2.9-2.6s-1.4-2.6-2.9-2.6H51.5z"/>
<path class="st0" d="M58.7,20.2c0-2.7,1.8-4.5,4.5-4.5c2.7,0,4.5,1.8,4.5,4.5s-1.8,4.5-4.5,4.5S58.7,23,58.7,20.2z M65.5,20.2
	c0-1.9-1.1-2.8-2.3-2.8s-2.3,1-2.3,2.8s1.1,2.8,2.3,2.8S65.5,22.1,65.5,20.2z"/>
<path class="st0" d="M74.3,18.6v6h-2v-8.7h2.5l3.5,6v-6h2v8.7h-2.5L74.3,18.6z"/>
<path class="st0" d="M81.8,20.2c0-2.7,1.8-4.5,4.5-4.5s4.5,1.8,4.5,4.5s-1.8,4.5-4.5,4.5S81.8,23,81.8,20.2z M88.7,20.2
	c0-1.9-1.1-2.8-2.3-2.8s-2.3,1-2.3,2.8S85,23,86.3,23S88.7,22.1,88.7,20.2z"/>
<path class="st0" d="M91.3,17.7v-1.8H99v1.8h-2.8v6.9h-2.1v-6.9H91.3L91.3,17.7z"/>
<path class="st0" d="M34.3,34.6c0,3.3-2.2,4.3-5.1,4.3h-2.9v-8.7h2.9C32.1,30.3,34.3,31.3,34.3,34.6L34.3,34.6z M28.4,32v5.2h0.9
	c1.5,0,2.9-0.3,2.9-2.6S30.8,32,29.3,32H28.4z"/>
<path class="st0" d="M35.6,34.6c0-2.7,1.8-4.5,4.5-4.5s4.5,1.8,4.5,4.5s-1.8,4.5-4.5,4.5S35.6,37.3,35.6,34.6z M42.4,34.6
	c0-1.8-1.1-2.8-2.3-2.8s-2.3,1-2.3,2.8s1.1,2.8,2.3,2.8S42.4,36.5,42.4,34.6z"/>
<path class="st0" d="M48.1,35.5c0,1.3,0.3,2,1.7,2s1.7-0.8,1.7-2.1v-5.1h2v4.9c0,2.7-1,4-3.7,4s-3.8-1-3.8-3.9v-5h2L48.1,35.5
	L48.1,35.5z"/>
<path class="st0" d="M59.2,30.3c1.9,0,3.3,0.4,3.3,2.2c0,0.8-0.4,1.4-1,1.8c0.8,0.3,1.4,0.9,1.4,2c0,1.9-1.4,2.7-3.5,2.7h-4v-8.7
	L59.2,30.3L59.2,30.3z M59.3,33.8c0.7,0,1.1-0.3,1.1-0.9S60,32,59.3,32h-1.8v1.8H59.3z M59.4,37.3c0.9,0,1.3-0.4,1.3-1s-0.4-1-1.3-1
	h-1.9v2L59.4,37.3L59.4,37.3z"/>
<path class="st0" d="M70.7,37.2V39h-6.2v-8.7h2.1v6.9L70.7,37.2L70.7,37.2z"/>
<path class="st0" d="M78.7,30.3v1.8H74v1.5h4.4v1.8H74v1.8h4.6V39H72v-8.7L78.7,30.3L78.7,30.3z"/>
<path class="st0" d="M85.2,32.6c0,0.4,0.4,0.7,1,0.9l1.2,0.2c1.4,0.3,3.2,0.7,3.2,2.5s-1.8,2.8-3.7,2.8c-2.2,0-3.7-1.1-4-3h2
	c0.2,0.9,0.9,1.3,2,1.3c0.7,0,1.5-0.2,1.5-1c0-0.6-0.7-0.8-1.6-1l-1.1-0.2c-1.4-0.3-2.7-1-2.7-2.5c0-1.8,1.9-2.6,3.6-2.6
	s3.3,0.7,3.6,2.7h-2c-0.2-0.7-0.8-1-1.7-1C85.7,31.8,85.2,32.1,85.2,32.6L85.2,32.6z"/>
<path class="st0" d="M91,32.1v-1.8h7.6v1.8h-2.8V39h-2.1v-6.9H91L91,32.1z"/>
<path class="st0" d="M103.8,30.3l3.3,8.7h-2.2l-0.5-1.5h-3.4l-0.5,1.5h-2.2l3.3-8.7H103.8L103.8,30.3z M103.8,35.8l-1.1-3.3
	l-1.1,3.3H103.8L103.8,35.8z"/>
<path class="st0" d="M111.8,39.1c-2.7,0-4.3-1.7-4.3-4.5s1.7-4.5,4.4-4.5c2.2,0,3.7,1.4,4,3.4h-2c-0.2-1.2-1.1-1.7-2.1-1.7
	c-1.2,0-2.2,1-2.2,2.8s0.9,2.8,2.2,2.8c0.9,0,1.9-0.4,2.1-1.7h2C115.6,37.8,114,39.1,111.8,39.1L111.8,39.1z"/>
<path class="st0" d="M122.7,30.3h2.5l-3.2,3.5l3.4,5.2h-2.5l-2.3-3.7l-1,1.1V39h-2.1v-8.7h2.1v3.4C119.5,33.7,122.7,30.3,122.7,30.3
	z"/>
<path class="st0" d="M20.1,55.4v6h-2v-8.7h2.5l3.5,6v-6h2v8.7h-2.5L20.1,55.4z"/>
<path class="st0" d="M34.8,52.7v1.8h-4.6V56h4.4v1.8h-4.4v1.8h4.6v1.8h-6.7v-8.7L34.8,52.7L34.8,52.7z"/>
<path class="st0" d="M38.3,55c0,0.4,0.4,0.7,1,0.9l1.2,0.2c1.4,0.3,3.2,0.7,3.2,2.5s-1.8,2.8-3.7,2.8c-2.2,0-3.7-1.1-4-3h2
	c0.2,0.9,1,1.3,2,1.3c0.7,0,1.5-0.2,1.5-1c0-0.6-0.7-0.8-1.6-1l-1.1-0.2c-1.4-0.3-2.7-1-2.7-2.5c0-1.8,1.9-2.6,3.6-2.6
	s3.3,0.7,3.6,2.7h-2c-0.2-0.7-0.8-1-1.7-1C38.9,54.2,38.3,54.5,38.3,55L38.3,55z"/>
<path class="st0" d="M55.5,55.5c0,2.3-1.7,2.8-4,2.8h-1.3v3h-2v-8.7h3.3C53.8,52.7,55.5,53.2,55.5,55.5L55.5,55.5z M50.3,56.7h1.4
	c1,0,1.7-0.2,1.7-1.1s-0.8-1.1-1.7-1.1h-1.4V56.7z"/>
<path class="st0" d="M60.6,52.7l3.3,8.7h-2.2l-0.5-1.5h-3.4l-0.5,1.5h-2.2l3.3-8.7H60.6L60.6,52.7z M60.6,58.2l-1.1-3.3l-1.1,3.3
	H60.6L60.6,58.2z"/>
<path class="st0" d="M66.7,55c0,0.4,0.4,0.7,1,0.9l1.2,0.2c1.4,0.3,3.2,0.7,3.2,2.5s-1.8,2.8-3.7,2.8c-2.2,0-3.7-1.1-4-3h2
	c0.2,0.9,0.9,1.3,2,1.3c0.7,0,1.5-0.2,1.5-1c0-0.6-0.7-0.8-1.6-1l-1.1-0.2c-1.4-0.3-2.7-1-2.7-2.5c0-1.8,1.9-2.6,3.6-2.6
	s3.3,0.7,3.6,2.7h-2c-0.2-0.7-0.8-1-1.7-1C67.3,54.2,66.7,54.5,66.7,55L66.7,55z"/>
<path class="st0" d="M83.3,52.7v1.8h-4.6V56h4.4v1.8h-4.4v1.8h4.6v1.8h-6.7v-8.7L83.3,52.7L83.3,52.7z"/>
<path class="st0" d="M87.1,54.4v7h-2v-8.7h3.2l1.7,6.2l1.7-6.2h3.2v8.7h-2v-7l-1.9,7H89L87.1,54.4L87.1,54.4z"/>
<path class="st0" d="M104.3,55.5c0,2.3-1.7,2.8-3.9,2.8H99v3H97v-8.7h3.3C102.6,52.7,104.3,53.2,104.3,55.5L104.3,55.5z M99,56.7
	h1.4c1,0,1.7-0.2,1.7-1.1s-0.8-1.1-1.7-1.1H99V56.7z"/>
<path class="st0" d="M105.6,61.4v-8.7h2.1v8.7H105.6z"/>
<path class="st0" d="M115.9,59.6v1.8h-6.2v-8.7h2.1v6.9L115.9,59.6L115.9,59.6z"/>
<path class="st0" d="M123.8,52.7v1.8h-4.6V56h4.4v1.8h-4.4v1.8h4.6v1.8h-6.7v-8.7L123.8,52.7L123.8,52.7z"/>
<path class="st0" d="M127.7,58.1v3.3h-2.1v-8.7h3.3c2.2,0,3.9,0.5,3.9,2.7c0,1.3-0.7,2-1.7,2.4l2.1,3.6h-2.4l-1.9-3.3H127.7
	L127.7,58.1z M127.7,56.4h1.3c1,0,1.7-0.2,1.7-1s-0.7-1-1.7-1h-1.3V56.4L127.7,56.4z"/>
<path class="st0" d="M36.2,71.4c0,3.3-2.2,4.3-5.1,4.3h-2.9v-8.7h2.9C33.9,67.1,36.2,68.1,36.2,71.4L36.2,71.4z M30.3,68.8v5.2h0.9
	c1.5,0,2.9-0.3,2.9-2.6s-1.4-2.6-2.9-2.6H30.3z"/>
<path class="st0" d="M44.3,67.1v1.8h-4.6v1.5h4.4v1.8h-4.4V74h4.6v1.8h-6.7v-8.7L44.3,67.1L44.3,67.1z"/>
<path class="st0" d="M48,72.3c0,1.3,0.3,2,1.7,2s1.7-0.8,1.7-2.1v-5.1h2V72c0,2.7-1,3.9-3.7,3.9s-3.8-1-3.8-3.9v-5h2L48,72.3
	L48,72.3z"/>
<path class="st0" d="M54.6,67.1H57l1.9,2.6l1.9-2.6h2.4l-3.1,4.2l3.3,4.5H61L58.9,73l-2.1,2.8h-2.4l3.3-4.4L54.6,67.1L54.6,67.1z"/>
<path class="st0" d="M75.6,71.4c0,3.3-2.2,4.3-5.1,4.3h-2.9v-8.7h2.9C73.3,67.1,75.6,68.1,75.6,71.4L75.6,71.4z M69.7,68.8v5.2h0.8
	c1.5,0,2.9-0.3,2.9-2.6s-1.4-2.6-2.9-2.6H69.7z"/>
<path class="st0" d="M83.8,67.1v1.8h-4.6v1.5h4.4v1.8h-4.4V74h4.6v1.8h-6.7v-8.7L83.8,67.1L83.8,67.1z"/>
<path class="st0" d="M96.3,75.8h-2.1v-3.6h-3.6v3.6h-2.1v-8.7h2.1v3.3h3.6v-3.3h2.1V75.8z"/>
<path class="st0" d="M102.9,67.1l3.3,8.7H104l-0.5-1.6h-3.4l-0.5,1.6h-2.2l3.3-8.7H102.9L102.9,67.1z M102.9,72.6l-1.1-3.3l-1.1,3.3
	H102.9L102.9,72.6z"/>
<path class="st0" d="M109,72.3c0,1.3,0.3,2,1.7,2s1.7-0.8,1.7-2.1v-5.1h2.1V72c0,2.7-1,3.9-3.7,3.9s-3.8-1-3.8-3.9v-5h2.1L109,72.3
	L109,72.3z"/>
<path class="st0" d="M115.7,68.9v-1.8h7.6v1.8h-2.8v6.9h-2.1v-6.9H115.7L115.7,68.9z"/>
</svg>
