<?xml version="1.0" encoding="utf-8"?>
<!-- Generator: Adobe Illustrator 27.8.0, SVG Export Plug-In . SVG Version: 6.00 Build 0)  -->
<svg version="1.1" id="Layer_1" xmlns="http://www.w3.org/2000/svg" xmlns:xlink="http://www.w3.org/1999/xlink" x="0px" y="0px"
	 viewBox="0 0 636.2 407.3" style="enable-background:new 0 0 636.2 407.3;" xml:space="preserve">
<style type="text/css">
	.st0{fill:#FFFF00;}
</style>
<path class="st0" d="M318,407.1c-99.6,0-199.3-0.1-299,0.1c-11.3,0-18.7-7.4-19-18.8c0-0.5,0-1,0-1.5C0,264.9,0,142.9,0.1,20.8
	C0.1,14.9,0.8,9,5.6,4.5C8.7,1.6,12.2,0,16.5,0c45.7,0,91.4,0,137.1,0c155,0,310,0,465,0c7.5,0,12.8,3.4,16,9.8
	c1.2,2.3,1.5,5.2,1.5,7.8c0.1,124.2,0.1,248.4,0.1,372.6c0,9.7-8.3,17-17.1,17C518.7,407.1,418.3,407.1,318,407.1L318,407.1z
	 M317.2,0.8c-98.9,0-197.8,0-296.7,0c-1,0-2-0.1-3,0C8.8,1.5,1.5,7.2,1.5,17.1c0.1,124.4,0,248.9,0.1,373.3c0,1.7,0.3,3.5,0.9,5
	c3.1,8.1,9.3,11,17.7,11c197.8,0,395.6,0,593.4-0.1c3.2,0,6.4-0.3,9.6-0.8c5.8-0.8,11.7-7.9,11.7-13.8c-0.1-125.7,0-251.4-0.2-377.1
	c0-2.5-1.5-5.4-3-7.5c-3.9-5.5-10-6.4-16.1-6.4C516,0.8,416.6,0.8,317.2,0.8L317.2,0.8z"/>
<path class="st0" d="M203.7,120.9v-33h4.1c17.9,0,35.8-0.2,53.7,0.1c7.3,0.1,14.7,1.2,21.4,4.6c8.9,4.5,13.6,11.9,13.7,21.8
	c0.2,26.8,0,53.6,0,80.4c0,0.5-0.1,1-0.2,1.9h-4c-25.2,0-50.3-0.1-75.5,0.1c-3.7,0-7.1-0.7-10.2-2.6c-6.9-4.1-12.4-9.4-14.7-17.5
	c-2.3-8.2-1.1-16.1,1.1-23.9c0.8-3,2-6,3.2-9.4h-38.1c0.3-6.3,0.6-12.2,0.9-18.1c0.1-1.2,0-2.5,0-3.8c0-6.1-0.7-6.8-6.9-6.7
	c-0.7,0-1.5,0-2.7,0v80.9h-38.4V84.2c10.6,0,21.6-0.1,32.6,0.2c1.4,0,2.9,2.2,4.5,3.7c0.3-3.7,2.6-4.1,5.6-3.9
	c6.4,0.4,13.1-0.5,19.3,1c14.8,3.6,25.2,14.4,25,30.9c-0.1,8.7-0.7,17.3-1.1,26.2c0.7-1.1,1.5-2,2-3c3.9-7.4,9.9-11.4,18.2-11.6
	c8.7-0.2,17.4-0.6,26.1-0.7c2.6,0,5.2,0.7,7.7,0.6c1,0,2.5-1.2,2.8-2.2c0.2-0.7-1.1-2.5-2-2.7c-8.8-1.9-17.6-3.2-26.8-2
	C218.3,121.6,211.2,120.9,203.7,120.9L203.7,120.9z M245,171.6l0.4-1c1.5,0,3,0.1,4.5,0c4.6-0.3,7.9-2.6,8.4-6.7
	c0.5-3.3,0.3-6.7,0-10.1c-0.2-2.4-1.5-4.1-4.5-3.5c-2.4,0.4-4.9,0.3-7.3,0.8c-4.3,0.9-8.7,1.6-12.6,3.5c-2.3,1.1-4.5,4-5.2,6.5
	c-0.9,3,1.9,5.3,4.5,6.5C236.9,169.1,241,170.2,245,171.6L245,171.6z"/>
<path class="st0" d="M316.5,375.6c-89.4,0-178.7,0-268.1,0c-7.3,0-10.8-3-10.8-9.1c0-4.6,4.8-8.2,10.9-8.2c93.5,0,187,0,280.5,0
	c85.4,0,170.7,0,256.1,0c7.4,0,11,3.5,10.6,10.1c-0.2,3.5-3.8,7-7.3,7.1c-1,0-2,0-3,0C495.7,375.6,406.1,375.6,316.5,375.6
	L316.5,375.6z"/>
<path class="st0" d="M316.6,45.1c-89.7,0-179.5,0-269.2-0.1c-2.5,0-5.6-0.9-7.2-2.6c-2.3-2.2-3.9-5.6-1.9-9c2-3.6,5-5.6,9.3-5.6
	c28.9,0,57.8,0,86.7,0c150.2,0,300.4,0,450.6,0c7,0,10.8,3.3,10.8,9.2c0,4.3-3.2,7.6-7.6,8c-1.1,0.1-2.2,0-3.4,0
	C495.4,45.1,406,45.1,316.6,45.1L316.6,45.1z"/>
<path class="st0" d="M374.3,90c4.2,3.6,8.2,7.4,12.6,10.6c8.9,6.3,14,14.3,13.4,25.4c-0.4,7.5-4.4,13.4-9.2,18.7
	c-5.7,6.4-12.9,10.6-20.7,13.9c-1.6,0.7-3.5,1.2-5.3,1.2c-7.6-0.3-15.4,1.5-22.9-1.4c-0.7-0.3-1.5-0.4-2-0.8c-1.6-1.2-3-2.3-4.7-0.1
	c-1.5,2.1-2.7,4.1-1.1,6.6c3.1,5,8.8,7.3,14.8,5.1c5.3-1.9,10.5-4.2,15.4-7c4.9-2.8,10.1-2.8,15.2-2.1c6,0.8,12,2.3,17.7,4.5
	c3.5,1.4,6.7,4.1,9.3,7c1.3,1.5,1.4,4.6,1,6.9c-0.6,4.7-1.5,9.4-3,13.9c-1.6,4.6-5.7,6.2-10.2,6.6c-5.4,0.5-10.4-1.1-15.5-2.9
	c-2.9-1-6.5-1.1-9.4-0.3c-8.9,2.2-17.6,5-26.4,7.4c-11,3-21.3,0.5-30.7-5.4c-5.7-3.6-8.9-14.6-7.3-21.8c2.4-11.4,8.9-19.4,19.7-25
	c-2.7-2.7-5.6-5.1-7.8-8c-2.8-3.6-5.6-7.4-7.5-11.6c-3.9-8.6-1.4-16.6,3.9-23.9c6.1-8.4,14.6-14.1,23.1-19.9
	c7.8-5.4,14.9-11.8,22.1-17.9c6-5.1,12.3-9.7,20-12c6.4-2,8.8-0.3,8.9,6.3c0.1,7.1,0.1,14.2,0.2,21.4c0,2.1-0.8,3.2-3,3.2
	c-3.2-0.1-6.5,0-9.7,0C374.8,89.1,374.6,89.6,374.3,90L374.3,90z M345.5,124.2c0,6.5,3.4,10.2,9.3,10.2c5.5,0,10.2-4.7,10.2-10.2
	c0-6.1-4.4-10.8-10-10.9C349.1,113.4,345.6,117.4,345.5,124.2L345.5,124.2z"/>
<path class="st0" d="M107.4,85.5c-7.9,0.5-12.5,2.5-15.1,6.9h13.4v30.7H89.6v72.7H50.5v-72.4H38.6v-31c2.9,0,5.8-0.2,8.6,0.1
	c3.2,0.3,4.6-1.1,5.5-4c2.5-8.8,6.6-16.6,13.5-22.8c4-3.6,8.6-5.7,13.8-6.2c5.8-0.5,11.7-0.7,17.5-0.8c2.2,0,4.4,0.3,6.5,0.9
	c2.1,0.6,3.7,1.7,3.5,4.7C107.2,71.3,107.4,78.3,107.4,85.5z"/>
<path class="st0" d="M541.1,135.2c11,0,21.9,0.1,32.7-0.1c3.6-0.1,4.9,0.9,4.7,4.6c-0.3,4.6-0.1,9.2-0.1,14.2h-38.6
	c2.9,8.8,5.1,17.2,14.3,20.9c1.3,0.5,2.8,0.9,4.3,0.9c7.6-0.1,15.2-0.5,22.8-0.7c0.7,0,1.5,0.1,2.6,0.1c0,6.5,0.2,12.8-0.2,19.1
	c-0.1,1.1-2.6,2.8-4.1,3c-7.4,1.1-14.9,2.4-22.4,2.3c-12.1-0.1-23.7-3-33-11.4c-7.9-7.1-13.4-16-15.3-26.6c-1.6-8.9-3-18.1-3-27.1
	C505.8,118,513.1,105,528,97c8.6-4.6,17.9-7.2,27.8-7.6c5.1-0.2,10.2-0.7,15.2-0.7c3.5,0,6.9,0.3,10.3,0.8c0.8,0.1,2.2,1.5,2.2,2.2
	c-0.2,5.8-0.8,11.6-1.1,17.4c-0.2,3.5-2.7,3.3-5.2,3.6c-7.3,0.9-14.7,1.4-21.8,3.1C548.2,117.6,539.5,127.3,541.1,135.2L541.1,135.2
	z"/>
<path class="st0" d="M500.1,52.5v144h-36.4v-144H500.1z"/>
<path class="st0" d="M415.9,196.3V87.4c1.1-0.1,2.2-0.2,3.2-0.2c9.2,0,18.5,0.1,27.8-0.1c2.6,0,3.8,0.5,3.8,3.5
	c-0.1,34.3-0.1,68.5,0,102.8c0,1.9-0.1,3.4-2.7,3.4c-10.2-0.1-20.5,0-30.8-0.1C416.8,196.8,416.4,196.5,415.9,196.3L415.9,196.3z"/>
<path class="st0" d="M42.6,296c4.9,0,9.4-0.1,13.9,0.1c0.8,0,1.9,1.1,2.1,2c3.3,12,6.6,24,9.9,36c0.2,0.5,0.6,1,1,1.8
	c3.2-13.4,6.4-26.5,9.6-39.8c4.5,0,8.8,0.1,13,0c2.2-0.1,2.9,1,3.4,2.9c3.1,12.1,6.2,24.1,9.4,36.1c0.1,0.2,0.4,0.3,0.5,0.3
	c3.7-13,7.4-26.1,11.2-39.1h15.1c-2.9,8.1-5.6,15.9-8.4,23.7c-3.4,9.7-7,19.3-10.2,29c-0.9,2.6-2.1,3.7-4.8,3.5c-2-0.1-4.1-0.3-6,0
	c-4.1,0.7-5.3-1.6-6.1-5c-1.9-8.5-4-16.9-6.1-25.3c-1-4-2.1-8-3.2-12.3c-3.5,13.5-6.9,26.5-10.2,39.6c-0.6,2.2-1.5,3.2-3.8,2.9
	c-1.1-0.1-2.2,0-3.4,0c-7.3,0-7.4,0-9.8-6.8c-3.9-10.8-7.6-21.6-11.4-32.5C46.4,307.5,44.6,302,42.6,296L42.6,296z"/>
<path class="st0" d="M512.1,325.5c7.6,2,7.6,7.9,8.4,13.2c0.6,4.4,0.8,8.8,1.3,13.6c-3.9,0-8.7,0.1-13.5-0.1c-0.7,0-1.8-1.6-1.9-2.6
	c-0.5-3.8-0.7-7.6-0.8-11.5c-0.2-4.9-2.6-7.4-7.4-7.6c-6.2-0.2-12.3-0.7-18.9-1c0,6.7-0.2,12.8,0.1,18.9c0.1,3.2-1,4.2-4.1,4
	c-3.2-0.2-6.5,0-10,0V296h4.7c11.3,0,22.5-0.4,33.8,0.1c6.3,0.3,12,2.5,16,8.3c4.4,6.3,2.7,15.2-4.4,19.4
	C514.6,324.2,513.8,324.6,512.1,325.5L512.1,325.5z M479.5,305.8v15c6.7,0,13.2,0.1,19.7-0.1c1.9-0.1,4.1-0.9,5.7-2
	c3-2.1,3.1-6.1,1.8-8.4c-1.3-2.2-4.8-4.1-7.5-4.3C492.8,305.3,486.3,305.8,479.5,305.8L479.5,305.8z"/>
<path class="st0" d="M261.7,218.6c4.6,0,9,0,13.4,0c3.7,0,4.2,3.4,5.9,5.5c4.1,5.4,7.9,10.9,11.8,16.4c3.4,4.8,6.7,9.6,10.1,14.4
	c0.4,0.5,1,0.9,1.7,1.4v-37.4h13.7v55.3c-4.7,0-9.5,0-14.3-0.1c-0.5,0-1.1-0.8-1.5-1.3c-6.5-9-12.9-17.9-19.4-26.9
	c-2.5-3.5-4.9-7-8.1-10.4V274h-13.4L261.7,218.6L261.7,218.6z"/>
<path class="st0" d="M332.5,218.6c10.7,0,21.6,0.1,32.4-0.1c4.7-0.1,8.9,0.9,13.1,2.8c8.3,3.8,12.1,10.7,13.2,19.1
	c1,7.7-0.2,15.2-4.4,22c-4.6,7.5-11.7,11.1-19.9,11.6c-10.5,0.7-21,0.1-31.5,0.2c-2,0-3.4-0.2-3.4-2.8c0.1-17.3,0.1-34.6,0.1-51.8
	C332.1,219.4,332.3,219.2,332.5,218.6L332.5,218.6z M346.9,264.4c5.7,0,10.8,0.3,15.9-0.1c5.2-0.5,9.5-2.9,11.7-8.1
	c2.2-5.1,2.3-10.4,1.7-15.7c-1-8-7.1-12.6-14.5-12.2c-3.4,0.2-6.7,0-10.1,0.1c-1.6,0-3.3,0.2-4.7,0.3L346.9,264.4L346.9,264.4z"/>
<path class="st0" d="M268.2,327h-26.9v25.4c-4.5,0-8.6,0-12.7,0c-2.7,0-2.5-1.9-2.5-3.6c0-11.9,0-23.8,0-35.7c0-4.5,0.1-9,0-13.5
	c-0.1-2.5,0.7-3.7,3.4-3.5c3.7,0.2,7.5,0,11.5,0v21.2h27V296c4.6,0,8.8-0.1,13,0.1c0.8,0,2.1,1.7,2.1,2.7
	c0.1,16.6,0.1,33.3,0.1,49.9c0,2.6-1,3.9-3.8,3.6c-2.5-0.2-5-0.2-7.5,0c-3.1,0.3-3.8-1.1-3.8-3.9C268.3,341.3,268.2,334.2,268.2,327
	L268.2,327z"/>
<path class="st0" d="M549.4,305.8v11.9h34v9.9c-10,0-19.8,0.1-29.7-0.1c-3.5-0.1-5.1,0.8-4.7,4.5c0.3,3.1,0.1,6.2,0.1,9.8
	c4.3,0,8.4,0,12.5,0c7.6,0,15.3,0.1,22.9,0c2.7,0,3.8,0.7,3.8,3.6c0,7,0.1,7-6.8,7c-14.3,0-28.5-0.1-42.8,0.1c-3,0-3.9-0.9-3.9-3.9
	c0.1-16.3,0.1-32.5,0-48.8c0-2.6,0.5-3.9,3.5-3.8c15.4,0.1,30.8,0.1,46.2,0.1c0.6,0,1.2,0.1,1.7,0.1c0.2,0.4,0.4,0.6,0.4,0.8
	c0,2.9,0.9,6.4-0.5,8.4c-1,1.3-5.1,0.5-7.8,0.5C568.8,305.8,559.2,305.8,549.4,305.8L549.4,305.8z"/>
<path class="st0" d="M513.6,218.9c0.5,6.3-2.2,9.5-8.2,9.5c-8.5,0-17,0.1-25.5-0.1c-2.8-0.1-3.8,0.9-3.6,3.7c0.2,2.4,0,4.7,0,7.5
	h33.1c0.4,0.6,0.6,0.8,0.6,1c0.4,6.4-2.7,9.6-9.1,9.6h-24.6c0,4.2-0.2,8.3,0.1,12.3c0.1,0.7,2.1,1.9,3.2,1.9
	c10.4,0.1,20.8,0.1,31.1,0.1c1.3,0,2.7,0,4.3,0v9.6h-52.8v-55.1L513.6,218.9L513.6,218.9z"/>
<path class="st0" d="M121.2,218.8h14c0,6,0,11.9,0,17.7c0,1.9,0.4,3.1,2.6,3.1c8.2-0.1,16.5,0,25.1,0v-20.9H177V274h-14v-16.2
	c0-5.6-2.8-8.4-8.3-8.4c-5.9,0-11.8,0-17.6,0.1c-0.2,0-0.4,0.1-1.1,0.4c0,6.7-0.1,13.5,0.1,20.4c0.1,3.1-0.9,4.3-4.1,4
	c-3.5-0.2-7,0-10.8,0L121.2,218.8L121.2,218.8z"/>
<path class="st0" d="M455,352.3c-4.5,0-8.9,0.2-13.2-0.1c-1.2-0.1-2.8-1.5-3.2-2.6c-3.7-9.2-3.6-9.3-13.6-9.3
	c-4.4,0-8.8-0.2-13.1,0.1c-1.3,0.1-3,1.2-3.5,2.3c-1.5,3-2.5,6.3-3.7,9.3H389c2.6-5.8,4.9-11,7.3-16.2c5.6-12.5,11.2-25,16.9-37.4
	c0.5-1,1.9-2.2,2.9-2.3c4.2-0.3,8.5-0.2,12.7,0c0.9,0,2.2,0.6,2.5,1.4c8,17.9,15.9,35.8,23.8,53.7
	C455.2,351.3,455.1,351.5,455,352.3L455,352.3z M430.9,330.4c-2.8-7.1-5.6-14-8.7-21.7c-3.1,7.7-6,14.6-8.8,21.7H430.9z"/>
<path class="st0" d="M201.6,274h-15.4c8.3-18.5,16.5-36.8,24.8-55.4c4.9,0,10.1-0.1,15.4,0.1c0.9,0,2.2,1,2.6,1.9
	c5.4,11.9,10.6,23.9,15.9,35.9c2,4.6,4.1,9.1,6.2,13.7c0.5,1.1,1,2.2,1.8,3.9c-5.4,0-10.2,0.1-15-0.1c-0.8,0-1.9-1.6-2.1-2.5
	c-1.2-8.2-6.5-9.5-13.5-8.7c-4.1,0.5-8.3,0.2-12.4,0c-2.5-0.1-4,0.6-4.8,3C204,268.5,202.8,271.2,201.6,274L201.6,274z M228.1,253
	c-2.9-7.4-5.6-14.2-8.2-21l-0.9,0.1c-2.7,6.8-5.5,13.7-8.4,20.9L228.1,253L228.1,253z"/>
<path class="st0" d="M383.1,314.6h-13.9c-4.5-10.1-11.8-10.7-19.5-9.3c-9.8,1.7-13.2,9-13.9,17.8c-0.4,4.7,1.2,8.7,3.4,12.8
	c5.1,9.8,23.6,10.3,28.9-0.9c0.9-2,2-2.4,4-2.3c3.6,0.1,7.2,0,11.4,0c-1.4,5.9-3.9,10.9-8.5,14.1c-7.8,5.6-16.6,7.3-26.4,6.4
	c-8.2-0.8-15-3.5-20.6-9.2c-4.2-4.3-6-9.6-6.5-15.6c-0.4-5.5-0.3-10.9,1.6-16.2c2.9-8.1,9-12.6,16.7-15.5c9.6-3.6,19.5-3.1,28.9,0.4
	c6.3,2.4,11.8,6.6,14.3,13.5C383.3,311.8,383,313.1,383.1,314.6L383.1,314.6z"/>
<path class="st0" d="M196.9,352.2h-14.3c0-1.4,0-2.7,0-4c0-12.9-0.1-25.8,0.1-38.6c0-2.9-0.7-4-3.8-3.9c-5.6,0.2-11.2,0.1-17.1,0.1
	v-9.6h56.3c0.2,0.3,0.4,0.3,0.4,0.4c0.6,6.1-2.1,9.1-8.2,9.1c-4.1,0-8.2,0-12.4,0.1c-0.2,0-0.4,0.1-1.1,0.4L196.9,352.2L196.9,352.2
	z"/>
<path class="st0" d="M452.1,264.4v9.5h-49.2v-55.1h14V235c0,8.1,0,16.3,0,24.4c0,4.1,0.8,5,5,5c8.8,0,17.5,0,26.3,0
	C449.4,264.4,450.6,264.4,452.1,264.4L452.1,264.4z"/>
<path class="st0" d="M434.9,53.2c5.4,1.2,10.4,2.1,15.4,3.4c2.3,0.6,3.2,1.9,2.2,4.8c-3.5,10.2-10.5,17.4-19.2,23.1
	c-1.2,0.8-4.6-0.9-6.5-2.2c-6.7-4.4-11.4-10.9-15.4-17.7c-2.4-4.1-2-6,3.1-7.3C421.2,55.5,428.1,54.5,434.9,53.2L434.9,53.2z"/>
<path class="st0" d="M139,296c4.4,0,8.3,0.1,12.2,0c2.1,0,2.9,0.8,2.9,2.9c0,16.9,0,33.8-0.1,50.7c0,0.9-1.5,2.5-2.5,2.6
	c-3.4,0.3-6.8,0.3-10.1,0c-0.8-0.1-2.2-1.4-2.2-2.2C138.9,332.1,139,314.3,139,296L139,296z"/>
</svg>
