<?xml version="1.0" encoding="utf-8"?>
<!-- Generator: Adobe Illustrator 27.8.0, SVG Export Plug-In . SVG Version: 6.00 Build 0)  -->
<svg version="1.1" id="Layer_1" xmlns="http://www.w3.org/2000/svg" xmlns:xlink="http://www.w3.org/1999/xlink" x="0px" y="0px"
	 viewBox="0 0 288 144" style="enable-background:new 0 0 288 144;" xml:space="preserve">
<style type="text/css">
	.st0{fill:#FFF200;}
</style>
<g>
	<path class="st0" d="M293,149H-4.1V-5H293V149z M5.9,139H283V5H5.9V139z"/>
</g>
<g>
	<path class="st0" d="M37.8,115.5c-12.3-0.9-17.5-11.1-17.5-27.9v-0.7h12.7v0.7c0,11,1.7,15.8,7,15.8c4.3,0,6.4-3.1,6.4-10.8
		c0-6.5-2.6-9.8-6.8-12.6l-5-3.2c-9.1-5.9-13.7-11.5-13.7-25.6c0-14.8,6.7-21.8,16.9-22.1v-8.3h4.4v8.5c9.5,1.4,15.5,8.3,15.5,25
		v0.3H45.2v-0.3c0-9.8-2.3-13-6.7-13c-3.6,0-5.3,3.3-5.3,9.2c0,5.2,1.2,8.2,4.4,10.1l5.6,3.7c8.8,5.5,15.7,10.6,15.7,26.1
		c0,15.8-6.2,24.1-16.7,25.1v9.7h-4.4V115.5z"/>
</g>
<g>
	<g>
		<path class="st0" d="M248,115.1c-12.3-0.9-17.5-11.1-17.5-27.9v-0.7h12.7v0.7c0,11,1.7,15.8,7,15.8c4.3,0,6.4-3.1,6.4-10.8
			c0-6.5-2.6-9.8-6.8-12.6l-5-3.2c-9.1-5.9-13.7-11.5-13.7-25.6C231,36,237.7,29,248,28.7v-8.3h4.4v8.5c9.5,1.4,15.5,8.3,15.5,25
			v0.3h-12.5v-0.3c0-9.8-2.3-13-6.7-13c-3.6,0-5.3,3.3-5.3,9.2c0,5.2,1.2,8.2,4.4,10.1l5.6,3.7c8.8,5.5,15.7,10.6,15.7,26.1
			c0,15.8-6.2,24.1-16.7,25.1v9.7H248V115.1z"/>
	</g>
</g>
<g>
	<path class="st0" d="M116.8,53.2h-7.5V40.1H96.2v13.1h-7.5V21.3h7.5v12.2h13.1V21.3h7.5V53.2z"/>
	<path class="st0" d="M123.5,53.2V21.3h7.5v31.9H123.5z"/>
	<path class="st0" d="M159,31.3c-0.7-2.2-2.9-4.3-7-4.3c-4.6,0-8.2,3.4-8.2,10.2s3.3,10.4,8.4,10.4c3.5,0,7.1-1.3,7.1-5.4v-0.6h-7.7
		v-6.2h15.2v17.8h-5.8l-0.2-3.5c-2.1,2.8-5.2,4.1-9.8,4.1c-9.4,0-15.2-6.4-15.2-16.6c0-10.1,6.6-16.4,16.3-16.4
		c7.1,0,12.8,3.6,14.3,10.5H159z"/>
	<path class="st0" d="M201.2,53.2h-7.5V40.1h-13.1v13.1h-7.5V21.3h7.5v12.2h13.1V21.3h7.5V53.2z"/>
	<path class="st0" d="M87.1,89.8c-9.9,0-16-6.3-16-16.6c0-10.1,6.3-16.5,16.2-16.5c8,0,13.6,5.2,14.7,12.5h-7.4
		c-0.8-4.4-4.1-6.3-7.6-6.3c-4.5,0-8,3.7-8,10.3c0,6.7,3.5,10.3,8.1,10.3c3.3,0,6.9-1.4,7.7-6.3h7.4C101.1,84.7,95.1,89.8,87.1,89.8
		z"/>
	<path class="st0" d="M129.8,82.5v6.6h-22.8V57.3h7.5v25.3H129.8z"/>
	<path class="st0" d="M151.1,57.3l12.1,31.9H155l-1.9-5.7h-12.3l-1.9,5.7h-8l12-31.9H151.1z M151,77.4l-4.1-12.1l-4.1,12.1H151z"/>
	<path class="st0" d="M166.7,89.2V57.3h7.5v31.9H166.7z"/>
	<path class="st0" d="M188.2,63.7v25.5h-7.3V57.3h11.9l6.1,22.9l6.3-22.9h11.8v31.9h-7.3V63.6l-7.1,25.6h-7.1L188.2,63.7z"/>
	<path class="st0" d="M90.2,125.2V93.3h7.5v31.9H90.2z"/>
	<path class="st0" d="M101.6,99.9v-6.6h28v6.6h-10.3v25.3h-7.6V99.9H101.6z"/>
	<path class="st0" d="M158.2,93.3v6.6h-16.9v5.6h16v6.6h-16v6.4h16.9v6.6h-24.5V93.3H158.2z"/>
	<path class="st0" d="M171.1,99.7v25.5h-7.3V93.3h11.9l6.1,22.9l6.3-22.9h11.8v31.9h-7.3V99.6l-7.1,25.6h-7.1L171.1,99.7z"/>
</g>
</svg>
