<?xml version="1.0" encoding="utf-8"?>
<!-- Generator: Adobe Illustrator 27.8.0, SVG Export Plug-In . SVG Version: 6.00 Build 0)  -->
<svg version="1.1" id="Layer_1" xmlns="http://www.w3.org/2000/svg" xmlns:xlink="http://www.w3.org/1999/xlink" x="0px" y="0px"
	 viewBox="0 0 288 360" style="enable-background:new 0 0 288 360;" xml:space="preserve">
<style type="text/css">
	.st0{fill:#39FF14;}
	.st1{font-family:'SuisseIntlCond-Bold';}
	.st2{font-size:49.855px;}
</style>
<path class="st0" d="M143.4,93.8c-1.3,0-2.2,0-3.3,0c0.2-2.2,0.2-4.1,0.5-6.1c0.1-0.5,0.7-0.9,1.1-1.3c0.4,0.4,1,0.9,1.1,1.4
	C143,89.7,143.1,91.6,143.4,93.8z"/>
<text transform="matrix(1 0 0 1 43.4735 314.8088)" class="st0 st1 st2">KEEP DRY</text>
<path class="st0" d="M98.9,168.5c-1.5-2.1-3.1-4.7-5.1-7c-5.7-6.7-12.6-8.7-19.7-5.5c-3.3,1.5-6.3,4-9.3,6.2c-2.2,1.6-4.1,3.4-6,5
	c0,0.1-0.2-0.6-0.1-1.2c1.6-19.7,8.2-37.3,22.4-51.5c8.5-8.5,19.3-13.2,30.8-15.7c21.9-4.7,43.7-4.6,65.4,1.5
	c11,3.1,21.1,8.1,29.6,15.8c10,9,14.8,20.8,18.1,33.3c1.6,6.1,2.6,12.5,3.9,18.7c-0.3,0.1-0.6,0.2-0.9,0.3c-0.4-0.8-0.9-1.5-1.3-2.3
	c-7.5-15.1-26.1-16.4-35.8-2.6c-0.9,1.3-1.7,2.5-2.7,3.7c-1.8,2.3-2.7,2.1-4.7,0.1c-3.4-3.5-6.6-7.2-10.5-10.1
	c-7-5.3-14.2-4.6-20.5,1.5c-1.9,1.8-3.5,4-5.2,6.1c-1.3,1.7-2.5,3.6-3.9,5.6c1.7,0.1,3,0.2,4.5,0.3c0.1,0.9,0.3,1.7,0.3,2.6
	c0.1,21.3,0.3,42.5,0.3,63.8c0,3.6-0.4,7.3-1.2,10.8c-1.4,6.1-5.6,9.9-11.5,11.3c-5.5,1.3-10.9,0.3-14.9-4.4
	c-2.6-3.1-3.4-6.8-3.4-10.7c0-0.5,0.9-1.5,1.4-1.5c2.5-0.2,4.9-0.1,7.5-0.1c0.2,1.1,0.2,2,0.4,2.8c0.6,3.7,2,5.1,5.4,5.1
	c2.8,0,5.7-2.2,6.1-5.1c0.5-4.3,1.1-8.6,1.1-12.9c0-19.1-0.3-38.1-0.4-57.2c0-1.2,0-2.5,0-3.9c1.1-0.3,2.1-0.5,3.3-0.8
	c-0.3-0.6-0.4-1.2-0.7-1.6c-3.3-5.1-7.5-9.4-12.7-12.6c-5.8-3.6-11.6-3.5-16.9,0.6C107.7,160.5,103.4,164.6,98.9,168.5z"/>
<path class="st0" d="M176.1,59.8c0.2,1.4,0.4,2.7,0.5,4.1c0.3,4.7,0.6,9.5,1,14.2c0.4,4-2,8.1-5.6,9.4c-3.2,1.1-6.7-0.2-8.7-3.3
	c-2.1-3.3-1.3-7.2,1.5-10.4c2.7-3.1,4.8-6.6,7.2-9.9c1.1-1.5,2.1-3,3.2-4.4C175.5,59.6,175.8,59.7,176.1,59.8z"/>
<path class="st0" d="M125,57.9c0.1,1.2,0.3,2.4,0.4,3.5c0.4,4.8,0.7,9.7,1.1,14.5c0.3,3.7-0.9,6.8-4.1,8.9c-2.4,1.6-5.1,1.6-7.6,0.1
	c-2.8-1.8-4.3-4.5-3.7-7.8c0.3-1.6,1.2-3.2,2.1-4.6c2.5-3.6,5.1-7.1,7.7-10.6c1.1-1.5,2.2-2.9,3.3-4.4
	C124.5,57.7,124.8,57.8,125,57.9z"/>
<path class="st0" d="M151.9,29.4c0.1,1.3,0.3,2.5,0.4,3.8c0.3,4.9,0.6,9.7,1,14.6c0.3,3.8-2,7.9-5.5,9.2c-3.3,1.2-6.8-0.2-8.9-3.4
	c-1.9-3.2-1.2-7,1.4-10c2.6-3.1,4.9-6.6,7.3-9.9c1.1-1.5,2.1-3,3.2-4.6C151.2,29.2,151.6,29.3,151.9,29.4z"/>
<path class="st0" d="M224.3,80.7c0.1,1.1,0.4,2.2,0.4,3.3c0.3,5,0.8,9.9,0.8,14.9c0,2.2-0.5,4.6-1.7,6.4c-2.3,3.7-6.7,4.4-10,2.1
	c-3.6-2.4-4.8-7.5-2.4-10.9c3.4-4.8,6.9-9.6,10.3-14.4c0.5-0.7,0.8-1.5,1.3-2.2C223.5,80.3,223.9,80.5,224.3,80.7z"/>
<path class="st0" d="M210.8,41.7c0.3,7.3,0.9,14.7,0.7,22c-0.1,3.3-3.8,5.8-6.8,6c-3,0.2-6.1-1.7-7.5-4.8c-1.3-2.9-0.6-6.1,1.6-8.8
	c2.7-3.4,5.2-7,7.8-10.5c1-1.4,2-2.9,3.1-4.3C210.1,41.5,210.4,41.6,210.8,41.7z"/>
<path class="st0" d="M74.6,83c0.4,7.2,1.1,14.4,1,21.5c-0.1,3.6-3.8,6.2-7.1,6.5c-2.8,0.2-6-1.8-7.3-4.7c-1.5-3.2-0.6-6.3,1.9-9.2
	C65.7,94,68,90.4,70.4,87c1.1-1.5,2.2-2.9,3.2-4.4C74,82.8,74.3,82.9,74.6,83z"/>
<path class="st0" d="M94.5,39.4c0.1,1.1,0.4,2.2,0.4,3.2c0.4,5,0.6,10.1,1.1,15.1c0.4,4.1-1.9,8-5.6,9.3c-3.1,1.1-6.7-0.2-8.6-3.3
	c-2.1-3.3-1.3-7.2,1.5-10.4c2.7-3.1,4.8-6.6,7.2-9.9c1.1-1.5,2.2-2.9,3.2-4.4C94,39.1,94.2,39.2,94.5,39.4z"/>
</svg>
