<?xml version="1.0" encoding="utf-8"?>
<!-- Generator: Adobe Illustrator 27.8.0, SVG Export Plug-In . SVG Version: 6.00 Build 0)  -->
<svg version="1.1" id="Layer_1" xmlns="http://www.w3.org/2000/svg" xmlns:xlink="http://www.w3.org/1999/xlink" x="0px" y="0px"
	 viewBox="0 0 275 40" style="enable-background:new 0 0 275 40;" xml:space="preserve">
<path d="M255,0c-3.6,0-7.1,1-10,2.7C242.1,1,238.6,0,235,0s-7.1,1-10,2.7C222.1,1,218.6,0,215,0s-7.1,1-10,2.7
	C202.1,1,198.6,0,195,0s-7.1,1-10,2.7C182.1,1,178.6,0,175,0s-7.1,1-10,2.7C162.1,1,158.6,0,155,0s-7.1,1-10,2.7
	C142.1,1,138.6,0,135,0s-7.1,1-10,2.7C122.1,1,118.7,0,115,0s-7.1,1-10,2.7C102.1,1,98.7,0,95,0C83.9,0,75,8.9,75,20s8.9,20,20,20
	c3.7,0,7.1-1,10-2.7c2.9,1.7,6.3,2.7,10,2.7s7.1-1,10-2.7c2.9,1.7,6.4,2.7,10,2.7s7.1-1,10-2.7c2.9,1.7,6.4,2.7,10,2.7s7.1-1,10-2.7
	c2.9,1.7,6.4,2.7,10,2.7s7.1-1,10-2.7c2.9,1.7,6.4,2.7,10,2.7s7.1-1,10-2.7c2.9,1.7,6.4,2.7,10,2.7s7.1-1,10-2.7
	c2.9,1.7,6.4,2.7,10,2.7s7.1-1,10-2.7c2.9,1.7,6.4,2.7,10,2.7c11,0,20-9,20-20S266,0,255,0z"/>
<ellipse cx="37.5" cy="20" rx="37.5" ry="20"/>
</svg>
