<?xml version="1.0" encoding="UTF-8"?><svg id="Layer_1" xmlns="http://www.w3.org/2000/svg" viewBox="0 0 200 40"><defs><style>.cls-1{stroke-width:0px;}</style></defs><path class="cls-1" d="m180,0c-3.65,0-7.06.99-10,2.7-2.94-1.71-6.35-2.7-10-2.7s-7.06.99-10,2.7c-2.94-1.71-6.35-2.7-10-2.7s-7.06.99-10,2.7c-2.94-1.71-6.35-2.7-10-2.7s-7.06.99-10,2.7c-2.94-1.71-6.35-2.7-10-2.7s-7.06.99-10,2.7c-2.94-1.71-6.35-2.7-10-2.7s-7.06.99-10,2.7c-2.94-1.71-6.35-2.7-10-2.7s-7.06.99-10,2.7c-2.94-1.71-6.35-2.7-10-2.7s-7.06.99-10,2.7c-2.94-1.71-6.35-2.7-10-2.7C8.95,0,0,8.95,0,20s8.95,20,20,20c3.65,0,7.06-.99,10-2.7,2.94,1.71,6.35,2.7,10,2.7s7.06-.99,10-2.7c2.94,1.71,6.35,2.7,10,2.7s7.06-.99,10-2.7c2.94,1.71,6.35,2.7,10,2.7s7.06-.99,10-2.7c2.94,1.71,6.35,2.7,10,2.7s7.06-.99,10-2.7c2.94,1.71,6.35,2.7,10,2.7s7.06-.99,10-2.7c2.94,1.71,6.35,2.7,10,2.7s7.06-.99,10-2.7c2.94,1.71,6.35,2.7,10,2.7s7.06-.99,10-2.7c2.94,1.71,6.35,2.7,10,2.7,11.05,0,20-8.95,20-20S191.05,0,180,0Z"/></svg>