<?xml version="1.0" encoding="utf-8"?>
<!-- Generator: Adobe Illustrator 27.8.0, SVG Export Plug-In . SVG Version: 6.00 Build 0)  -->
<svg version="1.1" id="Layer_1" xmlns="http://www.w3.org/2000/svg" xmlns:xlink="http://www.w3.org/1999/xlink" x="0px" y="0px"
	 viewBox="0 0 288 360" style="enable-background:new 0 0 288 360;" xml:space="preserve">
<style type="text/css">
	.st0{fill:#FF000D;}
</style>
<g>
	<rect x="116.1" y="129.7" width="56" height="159.3"/>
	<path d="M164.1,137.7V281h-40V137.7H164.1 M180.1,121.7h-72V297h72V121.7L180.1,121.7z"/>
</g>
<g>
	<path class="st0" d="M235.9,36c8.9,0,16.1,7.2,16.1,16.1V308c0,8.9-7.2,16.1-16.1,16.1H52.1c-8.9,0-16.1-7.2-16.1-16.1V52.1
		C36,43.2,43.2,36,52.1,36H235.9 M235.9,18H52.1C33.2,18,18,33.2,18,52.1V308c0,18.8,15.2,34.1,34.1,34.1H236
		c18.8,0,34.1-15.2,34.1-34.1V52.1C270,33.2,254.8,18,235.9,18L235.9,18z"/>
	<g>
		<polygon class="st0" points="236.4,147 144.1,54.7 51.8,147 99,147 99,306 129,306 159,306 189,306 189,147 		"/>
	</g>
</g>
</svg>
