<?xml version="1.0" encoding="utf-8"?>
<!-- Generator: Adobe Illustrator 27.8.0, SVG Export Plug-In . SVG Version: 6.00 Build 0)  -->
<svg version="1.1" id="Layer_1" xmlns="http://www.w3.org/2000/svg" xmlns:xlink="http://www.w3.org/1999/xlink" x="0px" y="0px"
	 viewBox="0 0 381.4 634.4" style="enable-background:new 0 0 381.4 634.4;" xml:space="preserve">
<style type="text/css">
	.st0{fill:#FF0000;}
</style>
<g>
	<path class="st0" d="M381.4,634.4H0V0h381.4V634.4z M378.4,630.4V3H3v627.4H378.4z"/>
	<path class="st0" d="M58.7,182.7c0-16.3,0.1-32.7-0.1-49c-0.1-4,1-6.8,3.9-9.5c23.9-23.3,47.5-46.8,71.4-70.2c1.4-1.4,4-2.3,6-2.3
		c34.2-0.1,68.3-0.1,102.5,0c1.9,0,4.4,0.7,5.7,2C259.7,65,271.2,76.5,282.6,88c12.6,12.8,25.1,25.6,37.5,38.6
		c1.4,1.5,2.5,3.9,2.5,5.9c0.1,34,0.2,68,0,102c0,2.7-1.5,6-3.5,8c-23.7,23.7-47.6,47.2-71.5,70.6c-1.4,1.4-4,2.4-6,2.4
		c-33.8,0.1-67.6,0.1-101.5,0c-2.2,0-4.9-1.1-6.4-2.6c-24.2-24-48.3-48.1-72.3-72.3c-1.5-1.5-2.5-4.2-2.6-6.4
		C58.6,217.1,58.7,199.9,58.7,182.7L58.7,182.7z M190.6,62.6c-15.3,0-30.7-0.1-46,0.1c-1.9,0-4.3,0.9-5.6,2.2
		c-22.1,21.9-44.1,44-66.1,66.1c-1.3,1.3-2.5,3.3-2.6,5c-0.4,8.4-0.6,16.8-0.6,25.1c-0.1,22.7-0.1,45.3,0.1,68
		c0,2.3,1.2,5.1,2.9,6.8c21.4,21.7,43.1,43.2,64.5,64.8c2.2,2.2,4.4,2.9,7.4,2.9c17.7-0.1,35.3,0,53,0c12,0,24.1-0.8,36,0.3
		c6.2,0.6,9.3-1.9,13-5.6c19-19.1,37.9-38.5,57.4-57.1c6-5.7,7.7-11.9,7.7-19.3c0.1-28,0.1-56-0.1-84c0-2.2-1.1-4.9-2.6-6.4
		c-21.9-22.2-43.9-44.2-66.1-66.1c-1.6-1.6-4.5-2.7-6.8-2.8C221,62.5,205.8,62.6,190.6,62.6L190.6,62.6z"/>
	<path class="st0" d="M109.5,530.9c11.2,1.8,11.3,9.3,11.3,17.2c0,5.2,0.8,10.4,1.3,15.5c-3.7,0-8.2-0.2-12.8,0.1
		c-3.6,0.2-4.5-1.7-4.6-4.8c-0.2-4.9,0-10-0.9-14.8c-1.5-8-1.9-8-11-7.2v26.4H76.1v-65.8c11,0,22-0.5,33,0.1
		c10.9,0.7,13.8,12.9,12.3,20.1C120.1,524.2,119.5,527.9,109.5,530.9L109.5,530.9z M92.7,525.2c10.1,0.9,15-4.9,10.8-12.8
		c-1.1-2.1-5.2-3.3-8.1-3.6c-3.6-0.4-2.6,3-2.7,5.2C92.7,517.6,92.7,521.3,92.7,525.2z"/>
	<path class="st0" d="M152.1,461.3c-4.4,5-1.2,10.7-2.9,15.9H137V430h12.5v16.5c0.3,0.1,0.7,0.2,1,0.3c2.1-4.1,4.5-8.1,6.2-12.4
		c1.6-4,4-5.5,8.2-4.9c2.1,0.3,4.3,0.1,7.3,0.1c-3.6,6.5-7,12.3-10.2,18.3c-0.7,1.3-1.4,3.3-0.9,4.4c3.3,7.1,6.9,14,11.1,22.2
		c3.8-15.7,7.3-30.1,10.7-44.5c0.4-0.1,0.7-0.4,1-0.4c4.8,0.1,10.7-1.5,14.1,0.8c2.9,1.9,2.8,8.2,3.9,12.6
		c2.8,11.4,5.6,22.8,8.4,34.3h-12.9c-1.2-5.4-4.9-7.9-11.2-7.7c-0.6,2.4-1.2,4.8-2,7.8c-7.4,0-15,0.1-22.6-0.1
		c-1.1,0-2.5-1.4-3.1-2.5C156.4,470.8,154.5,466.5,152.1,461.3L152.1,461.3z M194.3,459.4c-1-6.2-1.9-12.1-2.9-18
		c-0.3,0-0.6-0.1-0.9-0.1c-1,5.9-2,11.8-3,18.1H194.3z"/>
	<path class="st0" d="M230.7,517.6c-3.5,0-6.7-0.1-9.8,0c-4.3,0.2-7.9,0.3-7.5-6c0.1-1.6-3.5-4.9-4.9-4.7c-2.1,0.4-5.4,3.1-5.5,4.9
		c-0.5,12.5-0.4,25,0,37.5c0.1,1.8,2.8,4.3,4.7,4.8c1.4,0.4,4.3-1.7,5.1-3.3c1.3-2.9,1.5-6.2,1.9-9.4c0.1-0.7-0.9-2.3-1.2-2.3
		c-6.9,0.9-4.2-4.2-4.7-7.3c-0.2-1.3,0-2.6,0-4.1h21.6v36h-10.6c-0.5-1.8-0.9-3.3-1.4-5.3c-3,4.3-6.8,6.8-11.9,6.2
		c-4.4-0.5-9-0.6-13-2.2c-2.7-1.1-5.8-4.2-6.4-6.9c-3.4-15.2-4-30.8-0.1-46c4.2-16.6,28-16.8,36.4-10
		C227.3,502.9,228.2,505.4,230.7,517.6L230.7,517.6z"/>
	<path class="st0" d="M142.9,496.8h21.4c5.4,22.1,10.8,44.2,16.2,66.5h-17.5c-0.4-1.6-1.4-3.4-1.2-5c0.5-4.9-1.6-6.2-6.1-5.7
		c-3.1,0.3-6.3,0.1-9.7,0.1c-0.6,3.6-1.1,7-1.8,10.7h-17.6C132.2,541.1,137.5,518.9,142.9,496.8L142.9,496.8z M159,539.4
		c-1.7-10.2-3.4-19.9-5-29.5c-0.4,0-0.7,0.1-1.1,0.1c-1.6,9.8-3.2,19.5-4.9,29.4H159z"/>
	<path class="st0" d="M311,497.1h38.3v13.3H327v12.3h20.8v13.5c-4-0.2-7.4-0.7-10.8-0.6c-3.2,0.1-6.5,0.8-9.6,1.2
		c-0.2,0.2-0.4,0.4-0.4,0.5c-1.1,8.8,2.8,13.2,11.6,13.2h11.8V564H311L311,497.1L311,497.1z"/>
	<path class="st0" d="M68.4,510.7H46v11.7h21.4v13.2c-5.6,0-11,0.3-16.5-0.1c-4.3-0.3-5.4,1.5-5.3,5.5c0.3,7.3,0.1,14.6,0.1,22.2H30
		v-66.4h38.3L68.4,510.7L68.4,510.7z"/>
	<path class="st0" d="M266,496.8h15.5v53.5h21.8v13.4H266V496.8L266,496.8z"/>
	<path class="st0" d="M175,363.9v16.3h7.6v-16.3h12.7v47.4h-12.5V392h-8.1v19.4h-11.7v-47.4L175,363.9L175,363.9z"/>
	<path class="st0" d="M244.4,444.3h-11.2c-1.1-2.6,1.2-7.4-4.3-6.6c-1.1,0.1-2.8,1.2-2.9,2c-0.4,8.6-0.9,17.1-0.7,25.7
		c0,1.8,2.7,3.5,4.2,5.2c1.3-1.7,2.8-3.3,3.8-5.2c0.6-1.1,0.4-2.6,0.6-4.2c-6.9-0.1-5.1-4.9-5-9.2h15.6v26c-3-0.5-5.6-0.9-9.1-1.5
		c-2.8,0.5-6.9,1.8-11.1,2c-5.5,0.3-8.9-2.4-10.5-7.8c-3.1-10.7-2.9-21.5,0.1-32c2.1-7.4,11.1-12,19.1-9.9
		C240.6,430.8,245.5,434.9,244.4,444.3L244.4,444.3z"/>
	<path class="st0" d="M98.8,477.4H86.1c-0.6-2.3-1.2-4.8-1.9-7.5h-10c-0.7,5.7-5.4,8.2-14.1,7.5c3.6-15,7.1-30.1,10.8-45.1
		c0.3-1.1,2.1-2.4,3.3-2.5c4.3-0.3,8.6-0.1,13-0.1C91.1,445.6,94.9,461.4,98.8,477.4z M82.8,459.3c-1.1-6.1-2.1-12-3.1-17.8
		c-0.2,0-0.5,0-0.8,0c-1.1,5.8-2.1,11.6-3.2,17.8H82.8z"/>
	<path class="st0" d="M239,496.8h16.4v66.8H239V496.8L239,496.8z"/>
	<path class="st0" d="M316.8,463.8c2.4-0.1,3.2-0.2,4-0.2c2.7,0,5.3,0,8.2,0c0.4,1.4,0.4,3.1,1.2,4c1.3,1.3,3.8,3,4.9,2.5
		c2.2-1,4.5-3.3,2.4-6.2c-1.1-1.7-2.8-3-4.5-4.2c-1.7-1.2-3.8-1.8-5.7-2.8c-8.4-4.2-11.3-10.8-8.4-19.1c2.3-6.5,11.6-10.8,19.3-8.9
		c8.4,2.1,11.6,6.1,11.2,14.7c-2.9,0-5.8,0.2-8.7-0.1c-1.1-0.1-2-1.7-3-2.6c-1.3-1.1-2.5-2.5-3.9-3.1c-0.5-0.2-2.6,1.3-2.6,2
		c-0.1,1.9-0.1,4.7,1.1,5.7c2.3,1.9,5.3,3,8.2,4.1c10.7,4.1,14.2,18.3,6.1,25.6c-6.1,5.4-21.2,4.8-26.2-1.5
		C318.6,471.2,318.2,467.5,316.8,463.8L316.8,463.8z"/>
	<path class="st0" d="M249.5,376.5h-11c-0.2-0.2-0.4-0.6-0.7-1c-1.1-1.6-2.2-3.2-3.4-4.8c-1.2,1-3.4,2-3.4,2.9c0,2,0.6,4.9,2,5.9
		c3.6,2.5,7.9,3.9,11.6,6.2c5.4,3.3,8,10.4,5.9,17c-1.7,5.4-5.7,8.6-11.6,8.9c-3.5,0.2-7.1,0.4-10.6,0c-7.5-0.9-10.9-5.3-10.5-13.5
		h11.6c0.1,0.5-0.1,1.6,0.3,2c1.4,1.3,2.9,2.7,4.6,3.5c0.7,0.3,3-1.1,3-1.6c-0.1-2.2-0.1-5.3-1.5-6.4c-3.6-2.8-7.7-4.7-11.8-6.8
		c-6-3.1-6.3-11.2-4.8-17.1c1.4-5.7,6.2-8.9,12.5-9c2.3,0,4.7-0.3,7,0.1C244.5,363.4,249.7,367.5,249.5,376.5L249.5,376.5z"/>
	<path class="st0" d="M132.4,446.4h-11.2c-0.6-3-1.2-5.8-1.8-8.5c-5.3-1.2-6.7,1.6-6.7,5.6c-0.1,6.7-0.1,13.3,0,20
		c0,1-0.1,2.2,0.4,2.9c1.3,1.5,2.9,2.8,4.4,4.1c0.9-1.4,2.4-2.6,2.8-4.2c0.6-2.3,0.5-4.9,0.7-7.5c3.8,0,7.4,0,11,0
		c3.6,13.6-6.2,21.6-19.7,19.6c-9.7-1.4-11.8-8.7-12.3-16.3c-0.5-7.3-0.1-14.9,1.2-22.2c1.6-8.7,10.2-13.4,19.5-11.3
		C128.2,430.5,133.5,434.7,132.4,446.4L132.4,446.4z"/>
	<path class="st0" d="M262.8,439.5v8.9h14.6v9h-14.3v10.1h16.4v9.7h-28.4v-47.4h27.3v9.6L262.8,439.5L262.8,439.5z"/>
	<path class="st0" d="M30,429.1c8,0.5,15.9,0.3,23.4,1.7c6.4,1.2,8.8,6.8,8.4,15.8c-0.3,6.4-3.5,10.6-9.6,11.9
		c-3.2,0.7-6.5,1-10.2,1.6v17.2H30L30,429.1L30,429.1z M41.9,451.8c2.8-1.5,5.7-2.1,6.3-3.6c0.8-2.2,0.7-5.4-0.3-7.6
		c-0.6-1.4-3.5-1.6-5.9-2.6L41.9,451.8L41.9,451.8z"/>
	<path class="st0" d="M137.9,373.5H129V364h30.4v9.4c-2.7,0.1-5.4,0.3-8.6,0.4c0,10.5,0,20.7,0,31c0,4.5-2.3,6.8-6.8,6.8
		c-1.8,0-3.6,0-6,0L137.9,373.5L137.9,373.5z"/>
	<path class="st0" d="M213.4,411.3c-8.4,0.7-12.6-3-12.6-11V364h12.6V411.3L213.4,411.3z"/>
	<path class="st0" d="M301.8,477.2V430h11.6v47.2H301.8z"/>
	<path class="st0" d="M78.7,182.9c0-12.8,0.7-25.7-0.3-38.5c-0.5-6.9,3-10.7,7.1-14.8c8.9-8.8,17.9-17.5,26.8-26.3
		c10.4-10.2,20.5-20.7,31.1-30.7c1.6-1.5,4.8-1.9,7.2-1.9c28.4,0.2,56.8,0.6,85.2,1c1.4,0,3.2,0.9,4.2,1.9
		c11.1,11.2,22,22.6,33.1,33.9c9,9.1,18.2,18.1,27.1,27.3c1.4,1.4,2.4,4,2.4,6c0.1,28.6,0.1,57.3,0,85.9c0,1.9-0.9,4.2-2.2,5.6
		c-20.2,20.4-40.5,40.7-60.9,60.9c-1.3,1.3-3.7,2.2-5.6,2.2c-28.8,0.1-57.6,0.1-86.4,0c-1.9,0-4.2-1-5.5-2.3
		c-20.4-20.1-40.6-40.4-60.8-60.8c-1.4-1.4-2.3-4-2.3-6C78.6,211.9,78.7,197.4,78.7,182.9L78.7,182.9z M236.2,183
		c-0.5-5.6-0.7-11.2-1.5-16.7c-0.5-3.3-1.7-6.6-2.9-9.8c-2.5-6.3-5.8-12.1-13-13.9c-13.8-3.3-22.1,1.8-27.1,15.6
		c-4,11.1-2.6,22.5-2.9,33.8c-0.2,8.2,2.1,15.8,5.7,23c3.7,7.3,9.7,10.7,17.6,10.6c7.9-0.1,13.9-3.7,17.8-11
		C235.1,204.6,236.1,194,236.2,183L236.2,183z M249,143.6v80.5h11.6v-35.5c6.3,0,12.1,0.4,18-0.1c2.7-0.2,5.7-1.6,8-3.3
		c9.7-7.2,10.1-22.7,4.9-31.8c-3-5.1-7.8-9.3-14.1-9.6C268.1,143.3,258.8,143.6,249,143.6L249,143.6z M86.8,199.6
		c0.4,2.6,0.7,4.7,1,6.8c1.1,9.7,12.8,20,22.3,19.2c18.3-1.5,27.4-20.6,20.2-34.8c-4.2-8.4-11.5-13.7-19.3-18.5
		c-2.6-1.6-5.6-3.3-7-5.7c-2.8-4.8-0.2-10,4.6-11.9c4.6-1.8,9.7-0.2,11.4,5c1.1,3.3,3,4,5.9,4c2.1,0,4.2,0,6.3,0
		c0.8-7.5-3.3-16.2-9.7-19.5c-10-5.1-21.6-2.9-27.6,6.2c-7.5,11.5-3.6,23.2,5.2,30c4,3.1,8.7,5.2,12.5,8.4c2.9,2.4,5.7,5.6,7.3,9
		c1.7,3.6,1.2,7.6-1.8,11c-3.4,3.9-7.8,5.2-12,3.4c-2.7-1.1-5.9-4.6-6.2-7.3c-0.4-4.7-2.3-5.6-6.2-5.2
		C91.6,199.8,89.2,199.6,86.8,199.6L86.8,199.6z M166.5,223.4c0.5-23.2,1-45.9,1.5-68.9h13.4v-11.9c-10.8,0-21.2-0.1-31.7,0
		c-10.8,0.1-10.2-2.6-9.9,10.5c0,0.4,0.4,0.9,0.7,1.6h14.3v68.6L166.5,223.4L166.5,223.4z"/>
	<path class="st0" d="M224.6,183.4c-1,7.1-1.8,14-2.9,20.7c-0.9,5.2-5.4,9.4-9.9,9.4c-3.6,0-7.8-4.5-9.1-9.2
		c-3.9-13.7-4.1-27.4,0.1-41.1c1.4-4.7,3.5-9.2,9.1-9.6c4.8-0.4,8.5,3.6,9.8,10.4C222.9,170.6,223.6,177.1,224.6,183.4L224.6,183.4z
		"/>
	<path class="st0" d="M261,177.6v-22c4.7,0,9.1-0.2,13.6,0.1c4.7,0.2,9.2,7.1,8.1,12.1c-1.3,6.3-4.3,9.2-10.9,9.8
		C268.3,177.8,264.8,177.6,261,177.6L261,177.6z"/>
</g>
</svg>
